<svg width="240" height="336" viewBox="0 0 240 336" fill="none" xmlns="http://www.w3.org/2000/svg">
<rect width="240" height="336" rx="11" fill="white"/>
<rect width="240" height="336" rx="11" fill="white"/>
<path d="M198 293.673C198 290.287 199.022 287.637 201.101 285.797C203.144 283.92 205.771 283 208.982 283C211.973 283 214.527 283.92 216.716 285.797C218.905 287.674 220 290.802 220 295.255V305.303C220 309.609 218.942 312.774 216.862 314.872C214.783 316.969 211.974 318 208.471 318C204.531 318 201.32 316.454 198.803 313.326L202.816 311.155C204.056 313.4 205.917 314.504 208.435 314.504C210.514 314.504 212.156 313.841 213.323 312.516C214.491 311.191 215.111 308.799 215.111 305.266V300.518C213.36 303.021 210.842 304.272 207.522 304.272C204.677 304.272 202.378 303.352 200.627 301.549C198.876 299.745 198 297.169 198 293.673ZM202.889 293.71C202.889 296.47 203.4 298.347 204.421 299.377C205.443 300.371 206.756 300.886 208.398 300.886C211.9 300.886 214.126 299.267 215.075 296.028C215.075 291.87 214.491 289.257 213.323 288.152C212.156 287.048 210.696 286.496 208.945 286.496C207.267 286.496 205.808 287.048 204.64 288.152C203.473 289.257 202.889 291.097 202.889 293.71Z" fill="#222222"/>
<path d="M203.866 263.672L204.245 262.246L202.774 262.147C200.01 261.959 197.825 259.656 197.825 256.844C197.825 253.908 200.205 251.528 203.14 251.528C205.232 251.528 207.045 252.737 207.912 254.499L209.002 256.713L210.092 254.499C210.96 252.737 212.772 251.528 214.865 251.528C217.8 251.528 220.18 253.908 220.18 256.844C220.18 259.656 217.995 261.959 215.231 262.147L213.759 262.246L214.139 263.672C214.255 264.108 214.318 264.568 214.318 265.044C214.318 267.98 211.938 270.36 209.002 270.36C206.067 270.36 203.687 267.98 203.687 265.044C203.687 264.568 203.749 264.108 203.866 263.672Z" fill="#2C2C2C"/>
<path d="M42 42.327C42 45.7129 40.9784 48.3628 38.8988 50.203C36.8557 52.08 34.2288 53 31.0182 53C28.0265 53 25.4727 52.08 23.2836 50.203C21.0946 48.326 20 45.1977 20 40.7445V30.6971C20 26.3911 21.058 23.2261 23.1376 21.1283C25.2172 19.0305 28.0265 18 31.529 18C35.4692 18 38.6799 19.5457 41.1973 22.674L37.1841 24.8454C35.9436 22.6004 34.0829 21.4963 31.5655 21.4963C29.4859 21.4963 27.8441 22.1588 26.6766 23.4837C25.5091 24.8086 24.8889 27.2008 24.8889 30.734V35.4816C26.6402 32.979 29.1575 31.7276 32.4776 31.7276C35.3233 31.7276 37.6219 32.6478 39.3731 34.4511C41.1244 36.2545 42 38.8307 42 42.327ZM37.1111 42.2903C37.1111 39.53 36.6003 37.653 35.5788 36.6225C34.5572 35.6288 33.2438 35.1136 31.602 35.1136C28.0995 35.1136 25.8739 36.733 24.9253 39.9717C24.9253 44.1305 25.5091 46.7434 26.6766 47.8475C27.8441 48.9516 29.3035 49.5037 31.0548 49.5037C32.733 49.5037 34.1924 48.9516 35.3599 47.8475C36.5273 46.7434 37.1111 44.9033 37.1111 42.2903Z" fill="#222222"/>
<path d="M36.1343 72.3284L35.7546 73.7536L37.2261 73.8534C39.9902 74.0409 42.1751 76.344 42.1751 79.1564C42.1751 82.0921 39.7954 84.4719 36.8597 84.4719C34.7676 84.4719 32.9554 83.2633 32.0876 81.5007L30.9976 79.2871L29.9076 81.5007C29.0397 83.2633 27.2276 84.4719 25.1354 84.4719C22.1998 84.4719 19.82 82.0921 19.82 79.1564C19.82 76.344 22.0049 74.0409 24.7691 73.8534L26.2405 73.7536L25.8608 72.3284C25.7445 71.8918 25.6822 71.4319 25.6822 70.9556C25.6822 68.0199 28.062 65.6401 30.9976 65.6401C33.9332 65.6401 36.313 68.0199 36.313 70.9556C36.313 71.4319 36.2506 71.8918 36.1343 72.3284Z" fill="#2C2C2C"/>
<path d="M139.747 157.724L138.287 163.205L143.946 163.589C154.578 164.311 162.981 173.169 162.981 183.986C162.981 195.277 153.828 204.43 142.537 204.43C134.491 204.43 127.521 199.781 124.183 193.002L119.991 184.488L115.798 193.002C112.46 199.781 105.491 204.43 97.4439 204.43C86.1531 204.43 77 195.277 77 183.986C77 173.169 85.4036 164.311 96.0349 163.589L101.694 163.205L100.234 157.724C99.7866 156.045 99.5467 154.276 99.5467 152.444C99.5467 141.153 108.7 132 119.991 132C131.282 132 140.435 141.153 140.435 152.444C140.435 154.276 140.195 156.045 139.747 157.724Z" fill="#2C2C2C"/>
</svg>
