<svg width="240" height="336" viewBox="0 0 240 336" fill="none" xmlns="http://www.w3.org/2000/svg">
<rect width="240" height="336" rx="11" fill="white"/>
<rect width="240" height="336" rx="11" fill="white"/>
<path d="M198 293.37C198 288.175 200.051 284.811 204.153 283.279L200.908 277H206.203L209 282.457C212.244 282.457 214.892 283.354 216.942 285.11C218.993 286.867 220 289.633 220 293.407V307.087C220 310.861 218.993 313.627 216.942 315.384C214.892 317.14 212.244 318 209 318C205.756 318 203.108 317.14 201.058 315.384C199.007 313.627 198 310.861 198 307.087V293.37ZM202.997 293.557V307.012C202.997 309.852 203.519 311.796 204.6 312.88C205.681 313.926 207.173 314.449 209.037 314.449C210.902 314.449 212.393 313.926 213.437 312.88C214.481 311.833 215.003 309.852 215.003 307.012V293.557C215.003 290.567 214.481 288.549 213.437 287.502C212.393 286.456 210.902 285.932 209 285.932C207.136 285.932 205.681 286.456 204.6 287.502C203.519 288.586 202.997 290.604 202.997 293.557Z" fill="#222222"/>
<path d="M203.866 263.672L204.245 262.246L202.774 262.147C200.01 261.959 197.825 259.656 197.825 256.844C197.825 253.908 200.205 251.528 203.14 251.528C205.232 251.528 207.045 252.737 207.912 254.499L209.002 256.713L210.092 254.499C210.96 252.737 212.772 251.528 214.865 251.528C217.8 251.528 220.18 253.908 220.18 256.844C220.18 259.656 217.995 261.959 215.231 262.147L213.759 262.246L214.139 263.672C214.255 264.108 214.318 264.568 214.318 265.044C214.318 267.98 211.938 270.36 209.002 270.36C206.067 270.36 203.687 267.98 203.687 265.044C203.687 264.568 203.749 264.108 203.866 263.672Z" fill="#2C2C2C"/>
<path d="M42 42.6299C42 47.825 39.9491 51.1887 35.8474 52.7211L39.0915 59H33.7966L31 53.5433C27.7559 53.5433 25.1085 52.6463 23.0576 50.8896C21.0068 49.133 20 46.3674 20 42.5926V28.9134C20 25.1386 21.0068 22.3729 23.0576 20.6163C25.1085 18.8597 27.7559 18 31 18C34.244 18 36.8915 18.8597 38.9424 20.6163C40.9932 22.3729 42 25.1386 42 28.9134V42.6299ZM37.0034 42.4431V28.9882C37.0034 26.1477 36.4813 24.2042 35.4 23.1203C34.3186 22.0738 32.8271 21.5506 30.9627 21.5506C29.0983 21.5506 27.6068 22.0738 26.5627 23.1203C25.5187 24.1668 24.9966 26.1477 24.9966 28.9882V42.4431C24.9966 45.433 25.5187 47.4512 26.5627 48.4977C27.6068 49.5442 29.0983 50.0675 31 50.0675C32.8644 50.0675 34.3186 49.5442 35.4 48.4977C36.4813 47.4139 37.0034 45.3957 37.0034 42.4431Z" fill="#222222"/>
<path d="M36.1343 72.3284L35.7546 73.7536L37.2261 73.8534C39.9902 74.0409 42.1751 76.344 42.1751 79.1564C42.1751 82.0921 39.7954 84.4719 36.8597 84.4719C34.7676 84.4719 32.9554 83.2633 32.0876 81.5007L30.9976 79.2871L29.9076 81.5007C29.0397 83.2633 27.2276 84.4719 25.1354 84.4719C22.1998 84.4719 19.82 82.0921 19.82 79.1564C19.82 76.344 22.0049 74.0409 24.7691 73.8534L26.2405 73.7536L25.8608 72.3284C25.7445 71.8918 25.6822 71.4319 25.6822 70.9556C25.6822 68.0199 28.062 65.6401 30.9976 65.6401C33.9332 65.6401 36.313 68.0199 36.313 70.9556C36.313 71.4319 36.2506 71.8918 36.1343 72.3284Z" fill="#2C2C2C"/>
<path d="M139.747 157.724L138.287 163.205L143.946 163.589C154.578 164.311 162.981 173.169 162.981 183.986C162.981 195.277 153.828 204.43 142.537 204.43C134.491 204.43 127.521 199.781 124.183 193.002L119.991 184.488L115.798 193.002C112.46 199.781 105.491 204.43 97.4439 204.43C86.1531 204.43 77 195.277 77 183.986C77 173.169 85.4036 164.311 96.0349 163.589L101.694 163.205L100.234 157.724C99.7866 156.045 99.5467 154.276 99.5467 152.444C99.5467 141.153 108.7 132 119.991 132C131.282 132 140.435 141.153 140.435 152.444C140.435 154.276 140.195 156.045 139.747 157.724Z" fill="#2C2C2C"/>
</svg>
