<svg width="240" height="336" viewBox="0 0 240 336" fill="none" xmlns="http://www.w3.org/2000/svg">
<rect width="240" height="336" rx="11" fill="white"/>
<rect width="240" height="336" rx="11" fill="white"/>
<path d="M205.186 301.22C207.987 296.924 209.497 292.335 209.645 287.415L209.792 284H214.73L214.583 287.672C214.399 292.445 212.519 297.585 208.982 303.056L205.002 309.225C203.601 311.318 202.938 313.153 202.938 314.769H220V318H198V316.421C198 313.667 199.069 310.62 201.243 307.352L205.186 301.22Z" fill="#222222"/>
<path d="M203.866 263.672L204.245 262.246L202.774 262.147C200.01 261.959 197.825 259.656 197.825 256.844C197.825 253.908 200.205 251.528 203.14 251.528C205.232 251.528 207.045 252.737 207.912 254.499L209.002 256.713L210.092 254.499C210.96 252.737 212.772 251.528 214.865 251.528C217.8 251.528 220.18 253.908 220.18 256.844C220.18 259.656 217.995 261.959 215.231 262.147L213.759 262.246L214.139 263.672C214.255 264.108 214.318 264.568 214.318 265.044C214.318 267.98 211.938 270.36 209.002 270.36C206.067 270.36 203.687 267.98 203.687 265.044C203.687 264.568 203.749 264.108 203.866 263.672Z" fill="#2C2C2C"/>
<path d="M34.8141 34.7796C32.0134 39.0756 30.5026 43.6652 30.3552 48.5853L30.2077 52H25.2697L25.4171 48.3283C25.6013 43.5551 27.4808 38.4146 31.0184 32.9438L34.9983 26.7753C36.3987 24.6825 37.062 22.8466 37.062 21.231H20V18H42V19.5788C42 22.3326 40.9314 25.3801 38.7572 28.648L34.8141 34.7796Z" fill="#222222"/>
<path d="M36.1343 72.3284L35.7546 73.7536L37.2261 73.8534C39.9902 74.0409 42.1751 76.344 42.1751 79.1564C42.1751 82.0921 39.7954 84.4719 36.8597 84.4719C34.7676 84.4719 32.9554 83.2633 32.0876 81.5007L30.9976 79.2871L29.9076 81.5007C29.0397 83.2633 27.2276 84.4719 25.1354 84.4719C22.1998 84.4719 19.82 82.0921 19.82 79.1564C19.82 76.344 22.0049 74.0409 24.7691 73.8534L26.2405 73.7536L25.8608 72.3284C25.7445 71.8918 25.6822 71.4319 25.6822 70.9556C25.6822 68.0199 28.062 65.6401 30.9976 65.6401C33.9332 65.6401 36.313 68.0199 36.313 70.9556C36.313 71.4319 36.2506 71.8918 36.1343 72.3284Z" fill="#2C2C2C"/>
<path d="M139.747 157.724L138.287 163.205L143.946 163.589C154.578 164.311 162.981 173.169 162.981 183.986C162.981 195.277 153.828 204.43 142.537 204.43C134.491 204.43 127.521 199.781 124.183 193.002L119.991 184.488L115.798 193.002C112.46 199.781 105.491 204.43 97.4439 204.43C86.1531 204.43 77 195.277 77 183.986C77 173.169 85.4036 164.311 96.0349 163.589L101.694 163.205L100.234 157.724C99.7866 156.045 99.5467 154.276 99.5467 152.444C99.5467 141.153 108.7 132 119.991 132C131.282 132 140.435 141.153 140.435 152.444C140.435 154.276 140.195 156.045 139.747 157.724Z" fill="#2C2C2C"/>
</svg>
