<svg width="240" height="336" viewBox="0 0 240 336" fill="none" xmlns="http://www.w3.org/2000/svg">
<rect width="240" height="336" rx="11" fill="white"/>
<rect width="240" height="336" rx="11" fill="white"/>
<path d="M198 294.91C198 291.431 199.095 288.748 201.284 286.863C203.473 284.979 206.099 284 209.237 284C214.017 284 217.592 285.74 220 289.183L215.987 291.213C214.6 288.676 212.375 287.407 209.274 287.407C207.595 287.407 206.099 287.987 204.823 289.147C203.546 290.307 202.889 292.228 202.889 294.91C202.889 297.629 203.509 299.514 204.786 300.601C206.063 301.689 208.106 302.232 210.952 302.232H217.483V318H198.912V314.81H212.594V305.64H210.113C206.464 305.64 203.546 304.806 201.32 303.139C199.095 301.471 198 298.716 198 294.91Z" fill="#222222"/>
<path d="M203.866 263.672L204.245 262.246L202.774 262.147C200.01 261.959 197.825 259.656 197.825 256.844C197.825 253.908 200.205 251.528 203.14 251.528C205.232 251.528 207.045 252.737 207.912 254.499L209.002 256.713L210.092 254.499C210.96 252.737 212.772 251.528 214.865 251.528C217.8 251.528 220.18 253.908 220.18 256.844C220.18 259.656 217.995 261.959 215.231 262.147L213.76 262.246L214.139 263.672C214.256 264.108 214.318 264.568 214.318 265.044C214.318 267.98 211.938 270.36 209.002 270.36C206.067 270.36 203.687 267.98 203.687 265.044C203.687 264.568 203.749 264.108 203.866 263.672Z" fill="#2C2C2C"/>
<path d="M42 41.0896C42 44.5694 40.9055 47.2517 38.7164 49.1365C36.5274 51.0214 33.9005 52 30.7629 52C25.9835 52 22.408 50.2602 20 46.8166L24.0133 44.7868C25.3997 47.3241 27.6252 48.5928 30.7264 48.5928C32.4047 48.5928 33.9005 48.0128 35.1775 46.8529C36.4544 45.693 37.1111 43.7719 37.1111 41.0896C37.1111 38.371 36.4909 36.4861 35.214 35.3987C33.937 34.3113 31.8939 33.7675 29.0481 33.7675H22.5174V18H41.0879V21.1897H27.4063V30.3603H29.8872C33.5356 30.3603 36.4544 31.194 38.6799 32.8614C40.9055 34.5287 42 37.2836 42 41.0896Z" fill="#222222"/>
<path d="M36.1343 72.3284L35.7546 73.7536L37.226 73.8534C39.9902 74.0409 42.1751 76.344 42.1751 79.1564C42.1751 82.0921 39.7953 84.4719 36.8597 84.4719C34.7675 84.4719 32.9554 83.2633 32.0875 81.5007L30.9975 79.2871L29.9075 81.5007C29.0397 83.2633 27.2275 84.4719 25.1354 84.4719C22.1997 84.4719 19.8199 82.0921 19.8199 79.1564C19.8199 76.344 22.0049 74.0409 24.769 73.8534L26.2405 73.7536L25.8608 72.3284C25.7445 71.8918 25.6821 71.4319 25.6821 70.9556C25.6821 68.0199 28.0619 65.6401 30.9975 65.6401C33.9331 65.6401 36.3129 68.0199 36.3129 70.9556C36.3129 71.4319 36.2506 71.8918 36.1343 72.3284Z" fill="#2C2C2C"/>
<path d="M139.747 157.724L138.287 163.205L143.946 163.589C154.578 164.311 162.981 173.169 162.981 183.986C162.981 195.277 153.828 204.43 142.537 204.43C134.491 204.43 127.521 199.781 124.183 193.002L119.991 184.488L115.798 193.002C112.46 199.781 105.491 204.43 97.4439 204.43C86.1531 204.43 77 195.277 77 183.986C77 173.169 85.4036 164.311 96.0349 163.589L101.694 163.205L100.234 157.724C99.7866 156.045 99.5467 154.276 99.5467 152.444C99.5467 141.153 108.7 132 119.991 132C131.282 132 140.435 141.153 140.435 152.444C140.435 154.276 140.195 156.045 139.747 157.724Z" fill="#2C2C2C"/>
</svg>
