<svg width="240" height="336" viewBox="0 0 240 336" fill="none" xmlns="http://www.w3.org/2000/svg">
<rect width="240" height="336" rx="11" fill="white"/>
<rect width="240" height="336" rx="11" fill="white"/>
<path d="M220 307.29C220 310.676 218.978 313.326 216.899 315.203C214.856 317.08 212.229 318 209.018 318C206.027 318 203.473 317.08 201.284 315.203C199.095 313.326 198 310.198 198 305.745V295.697C198 291.391 199.058 288.226 201.138 286.128C203.217 284.067 206.027 283 209.529 283C213.469 283 216.68 284.546 219.197 287.674L215.184 289.698C213.944 287.527 212.083 286.459 209.566 286.459C207.486 286.459 205.844 287.122 204.677 288.41C203.509 289.698 202.889 292.127 202.889 295.624V300.371C204.531 297.869 207.085 296.617 210.478 296.617C213.323 296.617 215.622 297.537 217.373 299.341C219.124 301.144 220 303.794 220 307.29ZM215.075 307.327C215.075 304.53 214.564 302.616 213.542 301.623C212.521 300.629 211.207 300.114 209.566 300.114C206.063 300.114 203.801 301.88 202.852 305.376C202.852 309.278 203.436 311.78 204.604 312.884C205.771 313.988 207.231 314.54 208.982 314.54C210.66 314.54 212.083 313.988 213.287 312.884C214.491 311.78 215.075 309.903 215.075 307.327Z" fill="#222222"/>
<path d="M203.866 263.672L204.245 262.246L202.774 262.147C200.01 261.959 197.825 259.656 197.825 256.844C197.825 253.908 200.205 251.528 203.14 251.528C205.232 251.528 207.045 252.737 207.912 254.499L209.002 256.713L210.092 254.499C210.96 252.737 212.772 251.528 214.865 251.528C217.8 251.528 220.18 253.908 220.18 256.844C220.18 259.656 217.995 261.959 215.231 262.147L213.759 262.246L214.139 263.672C214.255 264.108 214.318 264.568 214.318 265.044C214.318 267.98 211.938 270.36 209.002 270.36C206.067 270.36 203.687 267.98 203.687 265.044C203.687 264.568 203.749 264.108 203.866 263.672Z" fill="#2C2C2C"/>
<path d="M20 28.7098C20 25.3239 21.0215 22.674 23.1011 20.797C25.1442 18.92 27.7711 18 30.9817 18C33.9734 18 36.5273 18.92 38.7164 20.797C40.9054 22.674 42 25.8023 42 30.2555V40.3029C42 44.6089 40.942 47.774 38.8624 49.8718C36.7827 51.9328 33.9735 53 30.471 53C26.5307 53 23.3201 51.4543 20.8027 48.326L24.8159 46.3019C26.0564 48.4733 27.9171 49.5406 30.4345 49.5406C32.5141 49.5406 34.1559 48.878 35.3234 47.5899C36.4909 46.3018 37.1111 43.8728 37.1111 40.3764V35.6288C35.4693 38.1314 32.9154 39.3828 29.5224 39.3828C26.6766 39.3828 24.3781 38.4627 22.6269 36.6594C20.8756 34.856 20 32.2061 20 28.7098ZM24.9253 28.673C24.9253 31.47 25.4361 33.3838 26.4577 34.3775C27.4792 35.3712 28.7927 35.8864 30.4345 35.8864C33.937 35.8864 36.199 34.1199 37.1476 30.6236C37.1476 26.7224 36.5639 24.2197 35.3964 23.1156C34.2289 22.0115 32.7694 21.4595 31.0182 21.4595C29.3399 21.4595 27.9171 22.0115 26.7131 23.1156C25.5091 24.2197 24.9253 26.0967 24.9253 28.673Z" fill="#222222"/>
<path d="M36.1343 72.3284L35.7546 73.7536L37.2261 73.8534C39.9902 74.0409 42.1751 76.344 42.1751 79.1564C42.1751 82.0921 39.7954 84.4719 36.8597 84.4719C34.7676 84.4719 32.9554 83.2633 32.0876 81.5007L30.9976 79.2871L29.9076 81.5007C29.0397 83.2633 27.2276 84.4719 25.1354 84.4719C22.1998 84.4719 19.82 82.0921 19.82 79.1564C19.82 76.344 22.0049 74.0409 24.7691 73.8534L26.2405 73.7536L25.8608 72.3284C25.7445 71.8918 25.6822 71.4319 25.6822 70.9556C25.6822 68.0199 28.062 65.6401 30.9976 65.6401C33.9332 65.6401 36.313 68.0199 36.313 70.9556C36.313 71.4319 36.2506 71.8918 36.1343 72.3284Z" fill="#2C2C2C"/>
<path d="M139.747 157.724L138.287 163.205L143.946 163.589C154.578 164.311 162.981 173.169 162.981 183.986C162.981 195.277 153.828 204.43 142.537 204.43C134.491 204.43 127.521 199.781 124.183 193.002L119.991 184.488L115.798 193.002C112.46 199.781 105.491 204.43 97.4439 204.43C86.1531 204.43 77 195.277 77 183.986C77 173.169 85.4036 164.311 96.0349 163.589L101.694 163.205L100.234 157.724C99.7866 156.045 99.5467 154.276 99.5467 152.444C99.5467 141.153 108.7 132 119.991 132C131.282 132 140.435 141.153 140.435 152.444C140.435 154.276 140.195 156.045 139.747 157.724Z" fill="#2C2C2C"/>
</svg>
