<svg width="240" height="336" viewBox="0 0 240 336" fill="none" xmlns="http://www.w3.org/2000/svg">
<rect width="240" height="336" rx="11" fill="white"/>
<rect width="240" height="336" rx="11" fill="white"/>
<path fill-rule="evenodd" clip-rule="evenodd" d="M214 309C214 313.971 209.971 318 205 318C200.029 318 196 313.971 196 309V291.5C196 286.529 200.029 282.5 205 282.5C209.971 282.5 214 286.529 214 291.5V309ZM209 310.5C209 312.709 207.209 314.5 205 314.5C202.791 314.5 201 312.709 201 310.5V290C201 287.791 202.791 286 205 286C207.209 286 209 287.791 209 290V310.5Z" fill="#222222"/>
<path d="M217.226 317H222V283H217.226V317Z" fill="#222222"/>
<path d="M203.866 263.672L204.245 262.246L202.774 262.147C200.01 261.959 197.825 259.656 197.825 256.844C197.825 253.908 200.205 251.528 203.14 251.528C205.232 251.528 207.045 252.737 207.912 254.499L209.002 256.713L210.092 254.499C210.96 252.737 212.772 251.528 214.865 251.528C217.8 251.528 220.18 253.908 220.18 256.844C220.18 259.656 217.995 261.959 215.231 262.147L213.759 262.246L214.139 263.672C214.255 264.108 214.318 264.568 214.318 265.044C214.318 267.98 211.938 270.36 209.002 270.36C206.067 270.36 203.687 267.98 203.687 265.044C203.687 264.568 203.749 264.108 203.866 263.672Z" fill="#2C2C2C"/>
<path fill-rule="evenodd" clip-rule="evenodd" d="M26 27C26 22.0294 30.0294 18 35 18C39.9706 18 44 22.0294 44 27V44.5C44 49.4706 39.9706 53.5 35 53.5C30.0294 53.5 26 49.4706 26 44.5V27ZM31 25.5C31 23.2909 32.7909 21.5 35 21.5C37.2091 21.5 39 23.2909 39 25.5V46C39 48.2091 37.2091 50 35 50C32.7909 50 31 48.2091 31 46V25.5Z" fill="#222222"/>
<path d="M22.7743 19H18V53H22.7743V19Z" fill="#222222"/>
<path d="M36.1343 72.3284L35.7546 73.7536L37.2261 73.8534C39.9902 74.0409 42.1751 76.344 42.1751 79.1564C42.1751 82.0921 39.7954 84.4719 36.8597 84.4719C34.7676 84.4719 32.9554 83.2633 32.0876 81.5007L30.9976 79.2871L29.9076 81.5007C29.0397 83.2633 27.2276 84.4719 25.1354 84.4719C22.1998 84.4719 19.82 82.0921 19.82 79.1564C19.82 76.344 22.0049 74.0409 24.7691 73.8534L26.2405 73.7536L25.8608 72.3284C25.7445 71.8918 25.6822 71.4319 25.6822 70.9556C25.6822 68.0199 28.062 65.6401 30.9976 65.6401C33.9332 65.6401 36.313 68.0199 36.313 70.9556C36.313 71.4319 36.2506 71.8918 36.1343 72.3284Z" fill="#2C2C2C"/>
<path d="M139.747 157.724L138.287 163.205L143.946 163.589C154.578 164.311 162.981 173.169 162.981 183.986C162.981 195.277 153.828 204.43 142.537 204.43C134.491 204.43 127.521 199.781 124.183 193.002L119.991 184.488L115.798 193.002C112.46 199.781 105.491 204.43 97.4439 204.43C86.1531 204.43 77 195.277 77 183.986C77 173.169 85.4036 164.311 96.0349 163.589L101.694 163.205L100.234 157.724C99.7866 156.045 99.5467 154.276 99.5467 152.444C99.5467 141.153 108.7 132 119.991 132C131.282 132 140.435 141.153 140.435 152.444C140.435 154.276 140.195 156.045 139.747 157.724Z" fill="#2C2C2C"/>
</svg>
