<svg width="240" height="336" viewBox="0 0 240 336" fill="none" xmlns="http://www.w3.org/2000/svg">
<rect width="240" height="336" rx="11" fill="white"/>
<rect width="240" height="336" rx="11" fill="white"/>
<path d="M198 283H218.807V286.28C218.807 289.821 216.607 293.772 212.17 298.133L205.495 304.693C203.854 306.296 203.034 307.899 203.034 309.502C203.034 311.179 203.556 312.446 204.637 313.266C205.681 314.086 207.136 314.496 209 314.496C212.17 314.496 214.481 313.043 215.861 310.098L220 312.297C217.427 316.099 213.773 318 209.037 318C206.017 318 203.407 317.217 201.281 315.615C199.156 314.012 198.075 311.962 198.075 309.502C198.075 307.079 199.342 304.619 201.915 302.121L208.478 295.673C212.058 292.132 213.885 289.001 213.885 286.317H198.075V283H198Z" fill="#222222"/>
<path d="M203.866 263.672L204.245 262.246L202.774 262.147C200.01 261.959 197.825 259.656 197.825 256.844C197.825 253.908 200.205 251.528 203.14 251.528C205.232 251.528 207.045 252.737 207.912 254.499L209.002 256.713L210.092 254.499C210.96 252.737 212.772 251.528 214.865 251.528C217.8 251.528 220.18 253.908 220.18 256.844C220.18 259.656 217.995 261.959 215.231 262.147L213.759 262.246L214.139 263.672C214.255 264.108 214.318 264.568 214.318 265.044C214.318 267.98 211.938 270.36 209.002 270.36C206.067 270.36 203.687 267.98 203.687 265.044C203.687 264.568 203.749 264.108 203.866 263.672Z" fill="#2C2C2C"/>
<path d="M42 53H21.1931V49.7199C21.1931 46.1789 23.3931 42.2279 27.8304 37.8669L34.505 31.3068C36.1457 29.704 36.9661 28.1012 36.9661 26.4984C36.9661 24.8211 36.4441 23.5537 35.3627 22.7337C34.3186 21.9137 32.8644 21.5037 30.9999 21.5037C27.8304 21.5037 25.5186 22.9574 24.1389 25.902L20 23.7029C22.5729 19.901 26.227 18 30.9626 18C33.983 18 36.5932 18.7827 38.7186 20.3855C40.844 21.9882 41.9254 24.0383 41.9254 26.4984C41.9254 28.9212 40.6576 31.3812 38.0847 33.8785L31.522 40.3269C27.9424 43.868 26.1152 46.999 26.1152 49.6827H41.9254V53H42Z" fill="#222222"/>
<path d="M36.1343 72.3284L35.7546 73.7536L37.226 73.8534C39.9902 74.0409 42.1751 76.344 42.1751 79.1564C42.1751 82.0921 39.7953 84.4719 36.8597 84.4719C34.7675 84.4719 32.9554 83.2633 32.0875 81.5007L30.9975 79.2871L29.9075 81.5007C29.0397 83.2633 27.2275 84.4719 25.1354 84.4719C22.1997 84.4719 19.8199 82.0921 19.8199 79.1564C19.8199 76.344 22.0049 74.0409 24.769 73.8534L26.2405 73.7536L25.8608 72.3284C25.7445 71.8918 25.6821 71.4319 25.6821 70.9556C25.6821 68.0199 28.0619 65.6401 30.9975 65.6401C33.9331 65.6401 36.3129 68.0199 36.3129 70.9556C36.3129 71.4319 36.2506 71.8918 36.1343 72.3284Z" fill="#2C2C2C"/>
<path d="M139.747 157.724L138.287 163.205L143.946 163.589C154.578 164.311 162.981 173.169 162.981 183.986C162.981 195.277 153.828 204.43 142.537 204.43C134.491 204.43 127.521 199.781 124.183 193.002L119.991 184.488L115.798 193.002C112.46 199.781 105.491 204.43 97.4439 204.43C86.1531 204.43 77 195.277 77 183.986C77 173.169 85.4036 164.311 96.0349 163.589L101.694 163.205L100.234 157.724C99.7866 156.045 99.5467 154.276 99.5467 152.444C99.5467 141.153 108.7 132 119.991 132C131.282 132 140.435 141.153 140.435 152.444C140.435 154.276 140.195 156.045 139.747 157.724Z" fill="#2C2C2C"/>
</svg>
