<svg width="240" height="336" viewBox="0 0 240 336" fill="none" xmlns="http://www.w3.org/2000/svg">
<rect width="240" height="336" rx="11" fill="white"/>
<rect width="240" height="336" rx="11" fill="white"/>
<path d="M220 288.637L216.016 290.7C214.639 287.863 212.14 286.463 208.482 286.463C206.598 286.463 205.005 286.979 203.737 288.01C202.469 289.042 201.817 290.884 201.817 293.5C201.817 295.968 202.578 297.663 204.063 298.547C205.548 299.432 207.323 299.874 209.315 299.874H211.452V303.116H209.315C207.613 303.116 206.091 303.595 204.751 304.516C203.375 305.474 202.723 306.947 202.723 308.937C202.723 310.889 203.266 312.326 204.353 313.21C205.439 314.095 206.816 314.537 208.482 314.537C211.561 314.537 213.806 313.137 215.146 310.3L219.131 312.363C216.45 316.121 212.901 318 208.446 318C205.331 318 202.759 317.189 200.803 315.532C198.847 313.874 197.869 311.7 197.869 308.937C197.869 305.289 199.789 302.784 203.665 301.495C199.21 300.5 197 297.847 197 293.5C197 290.074 198.087 287.458 200.26 285.689C202.433 283.921 205.15 283 208.482 283C213.48 283 217.32 284.879 220 288.637Z" fill="#222222"/>
<path d="M203.866 263.672L204.245 262.246L202.774 262.147C200.01 261.959 197.825 259.656 197.825 256.844C197.825 253.908 200.205 251.528 203.14 251.528C205.232 251.528 207.045 252.737 207.912 254.499L209.002 256.713L210.092 254.499C210.96 252.737 212.772 251.528 214.865 251.528C217.8 251.528 220.18 253.908 220.18 256.844C220.18 259.656 217.995 261.959 215.231 262.147L213.76 262.246L214.139 263.672C214.256 264.108 214.318 264.568 214.318 265.044C214.318 267.98 211.938 270.36 209.002 270.36C206.067 270.36 203.687 267.98 203.687 265.044C203.687 264.568 203.749 264.108 203.866 263.672Z" fill="#2C2C2C"/>
<path d="M20 47.3632L23.9843 45.3C25.3606 48.1369 27.8598 49.5369 31.5181 49.5369C33.4015 49.5369 34.9952 49.0211 36.2629 47.9895C37.5307 46.9579 38.1826 45.1159 38.1826 42.5001C38.1826 40.0317 37.422 38.3368 35.937 37.4526C34.4519 36.5684 32.6771 36.1264 30.685 36.1264H28.548V32.8842H30.685C32.3873 32.8842 33.9086 32.4053 35.2488 31.4842C36.6252 30.5263 37.2771 29.0527 37.2771 27.0632C37.2771 25.1106 36.7339 23.6738 35.6473 22.7895C34.5606 21.9053 33.1842 21.4632 31.5181 21.4632C28.4393 21.4632 26.1937 22.8633 24.8535 25.7001L20.8693 23.6368C23.5496 19.8789 27.0992 18 31.5543 18C34.6693 18 37.2409 18.8106 39.1968 20.4685C41.1527 22.1264 42.1306 24.3001 42.1306 27.0632C42.1306 30.7106 40.2109 33.2158 36.3353 34.5053C40.7905 35.5 43 38.1527 43 42.5001C43 45.9264 41.9133 48.5422 39.7401 50.3106C37.5668 52.079 34.8504 53 31.5181 53C26.5197 53 22.6803 51.1211 20 47.3632Z" fill="#222222"/>
<path d="M36.1343 72.3284L35.7546 73.7536L37.226 73.8534C39.9902 74.0409 42.1751 76.344 42.1751 79.1564C42.1751 82.0921 39.7953 84.4719 36.8597 84.4719C34.7675 84.4719 32.9554 83.2633 32.0875 81.5007L30.9975 79.2871L29.9075 81.5007C29.0397 83.2633 27.2275 84.4719 25.1354 84.4719C22.1997 84.4719 19.8199 82.0921 19.8199 79.1564C19.8199 76.344 22.0049 74.0409 24.769 73.8534L26.2405 73.7536L25.8608 72.3284C25.7445 71.8918 25.6821 71.4319 25.6821 70.9556C25.6821 68.0199 28.0619 65.6401 30.9975 65.6401C33.9331 65.6401 36.3129 68.0199 36.3129 70.9556C36.3129 71.4319 36.2506 71.8918 36.1343 72.3284Z" fill="#2C2C2C"/>
<path d="M139.747 157.724L138.287 163.205L143.946 163.589C154.578 164.311 162.981 173.169 162.981 183.986C162.981 195.277 153.828 204.43 142.537 204.43C134.491 204.43 127.521 199.781 124.183 193.002L119.991 184.488L115.798 193.002C112.46 199.781 105.491 204.43 97.4439 204.43C86.1531 204.43 77 195.277 77 183.986C77 173.169 85.4036 164.311 96.0349 163.589L101.694 163.205L100.234 157.724C99.7866 156.045 99.5467 154.276 99.5467 152.444C99.5467 141.153 108.7 132 119.991 132C131.282 132 140.435 141.153 140.435 152.444C140.435 154.276 140.195 156.045 139.747 157.724Z" fill="#2C2C2C"/>
</svg>
