<svg width="240" height="336" viewBox="0 0 240 336" fill="none" xmlns="http://www.w3.org/2000/svg">
<rect width="240" height="336" rx="11" fill="white"/>
<rect width="240" height="336" rx="11" fill="white"/>
<path d="M208.536 283C211.827 283 214.575 283.81 216.745 285.468C218.915 287.126 220 289.337 220 292.1C220 296.3 217.505 299.505 212.55 301.716C216.745 304 218.843 306.689 218.843 309.821C218.843 312.289 217.866 314.279 215.877 315.753C213.888 317.226 211.465 318 208.536 318C205.571 318 203.112 317.263 201.123 315.753C199.134 314.242 198.157 312.253 198.157 309.821C198.157 306.726 200.255 304.037 204.45 301.716C199.495 299.505 197 296.3 197 292.1C197 289.3 198.085 287.089 200.255 285.468C202.425 283.847 205.173 283 208.536 283ZM208.536 299.579C212.948 297.884 215.154 295.416 215.154 292.137C215.154 290.074 214.539 288.637 213.31 287.753C212.08 286.905 210.489 286.463 208.536 286.463C206.547 286.463 204.92 286.905 203.69 287.753C202.461 288.6 201.846 290.074 201.846 292.137C201.846 295.379 204.088 297.884 208.536 299.579ZM208.536 314.574C210.127 314.574 211.429 314.168 212.478 313.358C213.491 312.547 213.997 311.368 213.997 309.821C213.997 307.316 212.189 305.179 208.536 303.447C204.847 305.216 203.039 307.316 203.039 309.821C203.039 311.368 203.546 312.547 204.558 313.358C205.571 314.168 206.873 314.574 208.536 314.574Z" fill="#222222"/>
<path d="M203.866 263.672L204.245 262.246L202.774 262.147C200.01 261.959 197.825 259.656 197.825 256.844C197.825 253.908 200.205 251.528 203.14 251.528C205.232 251.528 207.045 252.737 207.912 254.499L209.002 256.713L210.092 254.499C210.96 252.737 212.772 251.528 214.865 251.528C217.8 251.528 220.18 253.908 220.18 256.844C220.18 259.656 217.995 261.959 215.231 262.147L213.759 262.246L214.139 263.672C214.255 264.108 214.318 264.568 214.318 265.044C214.318 267.98 211.938 270.36 209.002 270.36C206.067 270.36 203.687 267.98 203.687 265.044C203.687 264.568 203.749 264.108 203.866 263.672Z" fill="#2C2C2C"/>
<path d="M31.4638 53C28.1729 53 25.4246 52.1895 23.2547 50.5316C21.0849 48.8737 20 46.6632 20 43.9C20 39.7 22.4953 36.4948 27.4497 34.2843C23.2547 32 21.1573 29.3105 21.1573 26.179C21.1573 23.7105 22.1336 21.7211 24.1226 20.2474C26.1116 18.7737 28.5346 18 31.4638 18C34.4292 18 36.8884 18.7369 38.8774 20.2474C40.8664 21.758 41.8428 23.7474 41.8428 26.179C41.8428 29.2737 39.7453 31.9632 35.5503 34.2843C40.5047 36.4948 43 39.7 43 43.9C43 46.7 41.9151 48.9106 39.7453 50.5316C37.5755 52.1527 34.827 53 31.4638 53ZM31.4638 36.4211C27.0519 38.1158 24.8459 40.5843 24.8459 43.8632C24.8459 45.9264 25.4607 47.3632 26.6903 48.2474C27.9198 49.0948 29.511 49.5369 31.4638 49.5369C33.4528 49.5369 35.0802 49.0948 36.3098 48.2474C37.5393 47.4001 38.1541 45.9264 38.1541 43.8632C38.1541 40.6211 35.9119 38.1158 31.4638 36.4211ZM31.4638 21.4264C29.8726 21.4264 28.5708 21.8316 27.522 22.6421C26.5094 23.4527 26.0032 24.6316 26.0032 26.179C26.0032 28.6842 27.8113 30.8211 31.4638 32.5527C35.1525 30.7843 36.9607 28.6842 36.9607 26.179C36.9607 24.6316 36.4544 23.4527 35.4418 22.6421C34.4293 21.8316 33.1274 21.4264 31.4638 21.4264Z" fill="#222222"/>
<path d="M36.1343 72.3284L35.7546 73.7536L37.2261 73.8534C39.9902 74.0409 42.1751 76.344 42.1751 79.1564C42.1751 82.0921 39.7954 84.4719 36.8597 84.4719C34.7676 84.4719 32.9554 83.2633 32.0876 81.5007L30.9976 79.2871L29.9076 81.5007C29.0397 83.2633 27.2276 84.4719 25.1354 84.4719C22.1998 84.4719 19.82 82.0921 19.82 79.1564C19.82 76.344 22.0049 74.0409 24.7691 73.8534L26.2405 73.7536L25.8608 72.3284C25.7445 71.8918 25.6822 71.4319 25.6822 70.9556C25.6822 68.0199 28.062 65.6401 30.9976 65.6401C33.9332 65.6401 36.313 68.0199 36.313 70.9556C36.313 71.4319 36.2506 71.8918 36.1343 72.3284Z" fill="#2C2C2C"/>
<path d="M139.747 157.724L138.287 163.205L143.946 163.589C154.578 164.311 162.981 173.169 162.981 183.986C162.981 195.277 153.828 204.43 142.537 204.43C134.491 204.43 127.521 199.781 124.183 193.002L119.991 184.488L115.798 193.002C112.46 199.781 105.491 204.43 97.4439 204.43C86.1531 204.43 77 195.277 77 183.986C77 173.169 85.4036 164.311 96.0349 163.589L101.694 163.205L100.234 157.724C99.7866 156.045 99.5467 154.276 99.5467 152.444C99.5467 141.153 108.7 132 119.991 132C131.282 132 140.435 141.153 140.435 152.444C140.435 154.276 140.195 156.045 139.747 157.724Z" fill="#2C2C2C"/>
</svg>
