<svg width="240" height="336" viewBox="0 0 240 336" fill="none" xmlns="http://www.w3.org/2000/svg">
<rect width="240" height="336" rx="11" fill="white"/>
<rect width="240" height="336" rx="11" fill="white"/>
<path fill-rule="evenodd" clip-rule="evenodd" d="M214 309C214 313.971 209.971 318 205 318C200.029 318 196 313.971 196 309V291.5C196 286.529 200.029 282.5 205 282.5C209.971 282.5 214 286.529 214 291.5V309ZM209 310.5C209 312.709 207.209 314.5 205 314.5C202.791 314.5 201 312.709 201 310.5V290C201 287.791 202.791 286 205 286C207.209 286 209 287.791 209 290V310.5Z" fill="#222222"/>
<path d="M217.226 317H222V283H217.226V317Z" fill="#222222"/>
<path d="M209.028 252.312L216.54 261.063L209.028 269.84L201.516 261.063L209.028 252.312Z" fill="#F24E1E"/>
<path fill-rule="evenodd" clip-rule="evenodd" d="M26 27C26 22.0294 30.0294 18 35 18C39.9706 18 44 22.0294 44 27V44.5C44 49.4706 39.9706 53.5 35 53.5C30.0294 53.5 26 49.4706 26 44.5V27ZM31 25.5C31 23.2909 32.7909 21.5 35 21.5C37.2091 21.5 39 23.2909 39 25.5V46C39 48.2091 37.2091 50 35 50C32.7909 50 31 48.2091 31 46V25.5Z" fill="#222222"/>
<path d="M22.7743 19H18V53H22.7743V19Z" fill="#222222"/>
<path d="M30.972 83.6881L23.46 74.9366L30.972 66.1602L38.4839 74.9366L30.972 83.6881Z" fill="#F24E1E"/>
<path d="M119.892 201.415L91 167.756L119.892 134L148.784 167.756L119.892 201.415Z" fill="#F24E1E"/>
</svg>
