<svg width="240" height="336" viewBox="0 0 240 336" fill="none" xmlns="http://www.w3.org/2000/svg">
<rect width="240" height="336" rx="11" fill="white"/>
<rect width="240" height="336" rx="11" fill="white"/>
<path d="M198 293.37C198 288.175 200.051 284.811 204.153 283.279L200.908 277H206.203L209 282.457C212.244 282.457 214.892 283.354 216.942 285.11C218.993 286.867 220 289.633 220 293.407V307.087C220 310.861 218.993 313.627 216.942 315.384C214.892 317.14 212.244 318 209 318C205.756 318 203.108 317.14 201.058 315.384C199.007 313.627 198 310.861 198 307.087V293.37ZM202.997 293.557V307.012C202.997 309.852 203.519 311.796 204.6 312.88C205.681 313.926 207.173 314.449 209.037 314.449C210.902 314.449 212.393 313.926 213.437 312.88C214.481 311.833 215.003 309.852 215.003 307.012V293.557C215.003 290.567 214.481 288.549 213.437 287.502C212.393 286.456 210.902 285.932 209 285.932C207.136 285.932 205.681 286.456 204.6 287.502C203.519 288.586 202.997 290.604 202.997 293.557Z" fill="#222222"/>
<path d="M209.028 252.312L216.54 261.063L209.028 269.84L201.516 261.063L209.028 252.312Z" fill="#F24E1E"/>
<path d="M42 42.6299C42 47.825 39.9491 51.1887 35.8474 52.7211L39.0915 59H33.7966L31 53.5433C27.7559 53.5433 25.1085 52.6463 23.0576 50.8896C21.0068 49.133 20 46.3674 20 42.5926V28.9134C20 25.1386 21.0068 22.3729 23.0576 20.6163C25.1085 18.8597 27.7559 18 31 18C34.244 18 36.8915 18.8597 38.9424 20.6163C40.9932 22.3729 42 25.1386 42 28.9134V42.6299ZM37.0034 42.4431V28.9882C37.0034 26.1477 36.4813 24.2042 35.4 23.1203C34.3186 22.0738 32.8271 21.5506 30.9627 21.5506C29.0983 21.5506 27.6068 22.0738 26.5627 23.1203C25.5187 24.1668 24.9966 26.1477 24.9966 28.9882V42.4431C24.9966 45.433 25.5187 47.4512 26.5627 48.4977C27.6068 49.5442 29.0983 50.0675 31 50.0675C32.8644 50.0675 34.3186 49.5442 35.4 48.4977C36.4813 47.4139 37.0034 45.3957 37.0034 42.4431Z" fill="#222222"/>
<path d="M30.972 83.6881L23.46 74.9366L30.972 66.1602L38.4839 74.9366L30.972 83.6881Z" fill="#F24E1E"/>
<path d="M119.892 201.415L91 167.756L119.892 134L148.784 167.756L119.892 201.415Z" fill="#F24E1E"/>
</svg>
