<svg width="240" height="336" viewBox="0 0 240 336" fill="none" xmlns="http://www.w3.org/2000/svg">
<rect width="240" height="336" rx="11" fill="white"/>
<rect width="240" height="336" rx="11" fill="white"/>
<path d="M215.146 285.907V284H220V285.907C220 289.171 218.769 294.636 216.269 302.339L211.235 318H205.765L200.731 302.339C198.231 294.636 197 289.171 197 285.907V284H201.854V285.907C201.854 287.448 202.143 289.465 202.687 291.959H214.35C214.857 289.428 215.146 287.411 215.146 285.907ZM208.482 311.948L212.104 300.211C212.683 298.378 213.154 296.727 213.553 295.187H203.411C203.809 296.727 204.28 298.414 204.86 300.211L208.482 311.948Z" fill="#222222"/>
<path d="M217.547 259.538C219.695 262.16 220.204 265.82 217.848 268.216C215.301 270.806 211.425 270.056 209.073 267.664C206.721 270.056 202.845 270.806 200.298 268.216C197.942 265.82 198.451 262.16 200.599 259.538C202.919 256.706 206.095 254.272 209.073 252.162C212.051 254.272 215.227 256.706 217.547 259.538Z" fill="#F24E1E"/>
<path d="M24.8536 50.0928V52H20V50.0928C20 46.8285 21.2315 41.3635 23.7307 33.6613L28.7653 18H34.2347L39.2693 33.6613C41.7685 41.3635 43 46.8285 43 50.0928V52H38.1465V50.0928C38.1465 48.5524 37.8567 46.5351 37.3134 44.041H25.6504C25.1433 46.5718 24.8536 48.589 24.8536 50.0928ZM31.5181 24.0518L27.8961 35.7886C27.3165 37.6225 26.8457 39.273 26.4472 40.8134H36.589C36.1906 39.273 35.7197 37.5858 35.1402 35.7886L31.5181 24.0518Z" fill="#222222"/>
<path d="M22.4534 76.4623C20.3051 73.8397 19.7958 70.1803 22.1522 67.7838C24.6991 65.1936 28.5753 65.9442 30.9271 68.336C33.2789 65.9442 37.155 65.1936 39.7019 67.7838C42.0584 70.1803 41.5491 73.8397 39.4007 76.4623C37.0808 79.2943 33.9047 81.7276 30.9271 83.8377C27.9494 81.7276 24.7733 79.2943 22.4534 76.4623Z" fill="#F24E1E"/>
<path d="M87.1287 173.624C78.8659 163.537 76.9069 149.462 85.9702 140.245C95.7658 130.282 110.674 133.169 119.72 142.369C128.765 133.17 143.673 130.282 153.469 140.245C162.532 149.462 160.573 163.537 152.311 173.624C143.388 184.516 131.172 193.875 119.72 201.991C108.267 193.875 96.0513 184.516 87.1287 173.624Z" fill="#F24E1E"/>
</svg>
