<svg width="240" height="336" viewBox="0 0 240 336" fill="none" xmlns="http://www.w3.org/2000/svg">
<rect width="240" height="336" rx="11" fill="white"/>
<rect width="240" height="336" rx="11" fill="white"/>
<path d="M197.036 293.216H199.857V284H204.703V293.216H220V296.447L205.788 318H199.821V296.447H197V293.216H197.036ZM204.703 296.447V312.456L215.263 296.447H204.703Z" fill="#222222"/>
<path d="M217.547 259.538C219.695 262.16 220.204 265.82 217.848 268.216C215.301 270.806 211.425 270.056 209.073 267.664C206.721 270.056 202.845 270.806 200.298 268.216C197.942 265.82 198.451 262.16 200.599 259.538C202.919 256.706 206.095 254.272 209.073 252.162C212.051 254.272 215.227 256.706 217.547 259.538Z" fill="#F24E1E"/>
<path d="M42.9638 42.7841H40.143V52H35.2971V42.7841H20V39.5529L34.2123 18H40.1792V39.5529H43V42.7841H42.9638ZM35.2971 39.5529V23.5442L24.7374 39.5529H35.2971Z" fill="#222222"/>
<path d="M22.4534 76.4623C20.3051 73.8397 19.7958 70.1803 22.1522 67.7838C24.6991 65.1936 28.5753 65.9442 30.9271 68.336C33.2789 65.9442 37.155 65.1936 39.7019 67.7838C42.0584 70.1803 41.5491 73.8397 39.4007 76.4623C37.0808 79.2943 33.9047 81.7276 30.9271 83.8377C27.9494 81.7276 24.7733 79.2943 22.4534 76.4623Z" fill="#F24E1E"/>
<path d="M87.1287 173.624C78.8659 163.537 76.9069 149.462 85.9702 140.245C95.7658 130.282 110.674 133.169 119.72 142.369C128.765 133.17 143.673 130.282 153.469 140.245C162.532 149.462 160.573 163.537 152.311 173.624C143.388 184.516 131.172 193.875 119.72 201.991C108.267 193.875 96.0513 184.516 87.1287 173.624Z" fill="#F24E1E"/>
</svg>
