<svg width="240" height="336" viewBox="0 0 240 336" fill="none" xmlns="http://www.w3.org/2000/svg">
<rect width="240" height="336" rx="11" fill="white"/>
<rect width="240" height="336" rx="11" fill="white"/>
<path fill-rule="evenodd" clip-rule="evenodd" d="M214 309C214 313.971 209.971 318 205 318C200.029 318 196 313.971 196 309V291.5C196 286.529 200.029 282.5 205 282.5C209.971 282.5 214 286.529 214 291.5V309ZM209 310.5C209 312.709 207.209 314.5 205 314.5C202.791 314.5 201 312.709 201 310.5V290C201 287.791 202.791 286 205 286C207.209 286 209 287.791 209 290V310.5Z" fill="#222222"/>
<path d="M217.226 317H222V283H217.226V317Z" fill="#222222"/>
<path d="M217.547 259.538C219.695 262.16 220.204 265.82 217.848 268.216C215.301 270.806 211.425 270.056 209.073 267.664C206.721 270.056 202.845 270.806 200.298 268.216C197.942 265.82 198.451 262.16 200.599 259.538C202.919 256.706 206.095 254.272 209.073 252.162C212.051 254.272 215.227 256.706 217.547 259.538Z" fill="#F24E1E"/>
<path fill-rule="evenodd" clip-rule="evenodd" d="M26 27C26 22.0294 30.0294 18 35 18C39.9706 18 44 22.0294 44 27V44.5C44 49.4706 39.9706 53.5 35 53.5C30.0294 53.5 26 49.4706 26 44.5V27ZM31 25.5C31 23.2909 32.7909 21.5 35 21.5C37.2091 21.5 39 23.2909 39 25.5V46C39 48.2091 37.2091 50 35 50C32.7909 50 31 48.2091 31 46V25.5Z" fill="#222222"/>
<path d="M22.7743 19H18V53H22.7743V19Z" fill="#222222"/>
<path d="M22.4534 76.4623C20.3051 73.8397 19.7958 70.1803 22.1522 67.7838C24.6991 65.1936 28.5753 65.9442 30.9271 68.336C33.2789 65.9442 37.155 65.1936 39.7019 67.7838C42.0584 70.1803 41.5491 73.8397 39.4007 76.4623C37.0808 79.2943 33.9047 81.7276 30.9271 83.8377C27.9494 81.7276 24.7733 79.2943 22.4534 76.4623Z" fill="#F24E1E"/>
<path d="M87.1287 173.624C78.8658 163.537 76.9069 149.462 85.9702 140.245C95.7658 130.282 110.674 133.169 119.72 142.369C128.765 133.17 143.673 130.282 153.469 140.245C162.532 149.462 160.573 163.537 152.311 173.624C143.388 184.516 131.172 193.875 119.72 201.991C108.267 193.875 96.0513 184.516 87.1287 173.624Z" fill="#F24E1E"/>
</svg>
