<svg width="240" height="336" viewBox="0 0 240 336" fill="none" xmlns="http://www.w3.org/2000/svg">
<rect width="240" height="336" rx="11" fill="white"/>
<rect width="240" height="336" rx="11" fill="white"/>
<path d="M198 294.91C198 291.431 199.095 288.748 201.284 286.863C203.473 284.979 206.099 284 209.237 284C214.017 284 217.592 285.74 220 289.183L215.987 291.213C214.6 288.676 212.375 287.407 209.274 287.407C207.595 287.407 206.099 287.987 204.823 289.147C203.546 290.307 202.889 292.228 202.889 294.91C202.889 297.629 203.509 299.514 204.786 300.601C206.063 301.689 208.106 302.232 210.952 302.232H217.483V318H198.912V314.81H212.594V305.64H210.113C206.464 305.64 203.546 304.806 201.32 303.139C199.095 301.471 198 298.716 198 294.91Z" fill="#222222"/>
<path d="M217.547 259.538C219.695 262.16 220.204 265.82 217.848 268.216C215.301 270.806 211.425 270.056 209.073 267.664C206.721 270.056 202.845 270.806 200.298 268.216C197.942 265.82 198.451 262.16 200.599 259.538C202.919 256.706 206.095 254.272 209.073 252.162C212.051 254.272 215.227 256.706 217.547 259.538Z" fill="#F24E1E"/>
<path d="M42 41.0896C42 44.5694 40.9055 47.2517 38.7164 49.1365C36.5274 51.0214 33.9005 52 30.7629 52C25.9835 52 22.408 50.2602 20 46.8166L24.0133 44.7868C25.3997 47.3241 27.6252 48.5928 30.7264 48.5928C32.4047 48.5928 33.9005 48.0128 35.1775 46.8529C36.4544 45.693 37.1111 43.7719 37.1111 41.0896C37.1111 38.371 36.4909 36.4861 35.214 35.3987C33.937 34.3113 31.8939 33.7675 29.0481 33.7675H22.5174V18H41.0879V21.1897H27.4063V30.3603H29.8872C33.5356 30.3603 36.4544 31.194 38.6799 32.8614C40.9055 34.5287 42 37.2836 42 41.0896Z" fill="#222222"/>
<path d="M22.4534 76.4623C20.3051 73.8397 19.7958 70.1803 22.1522 67.7838C24.6991 65.1936 28.5753 65.9442 30.9271 68.336C33.2789 65.9442 37.155 65.1936 39.7019 67.7838C42.0584 70.1803 41.5491 73.8397 39.4007 76.4623C37.0808 79.2943 33.9047 81.7276 30.9271 83.8377C27.9494 81.7276 24.7733 79.2943 22.4534 76.4623Z" fill="#F24E1E"/>
<path d="M87.1287 173.624C78.8659 163.537 76.9069 149.462 85.9702 140.245C95.7658 130.282 110.674 133.169 119.72 142.369C128.765 133.17 143.673 130.282 153.469 140.245C162.532 149.462 160.573 163.537 152.311 173.624C143.388 184.516 131.172 193.875 119.72 201.991C108.267 193.875 96.0513 184.516 87.1287 173.624Z" fill="#F24E1E"/>
</svg>
