<svg width="240" height="336" viewBox="0 0 240 336" fill="none" xmlns="http://www.w3.org/2000/svg">
<rect width="240" height="336" rx="11" fill="white"/>
<rect width="240" height="336" rx="11" fill="white"/>
<path d="M205.186 301.22C207.987 296.924 209.497 292.335 209.645 287.415L209.792 284H214.73L214.583 287.672C214.399 292.445 212.519 297.585 208.982 303.056L205.002 309.225C203.601 311.318 202.938 313.153 202.938 314.769H220V318H198V316.421C198 313.667 199.069 310.62 201.243 307.352L205.186 301.22Z" fill="#222222"/>
<path d="M217.547 259.538C219.695 262.16 220.204 265.82 217.848 268.216C215.301 270.806 211.425 270.056 209.073 267.664C206.721 270.056 202.845 270.806 200.298 268.216C197.942 265.82 198.451 262.16 200.599 259.538C202.919 256.706 206.095 254.272 209.073 252.162C212.051 254.272 215.227 256.706 217.547 259.538Z" fill="#F24E1E"/>
<path d="M34.8141 34.7796C32.0134 39.0756 30.5026 43.6652 30.3552 48.5853L30.2077 52H25.2697L25.4171 48.3283C25.6013 43.5551 27.4808 38.4146 31.0184 32.9438L34.9983 26.7753C36.3987 24.6825 37.062 22.8466 37.062 21.231H20V18H42V19.5788C42 22.3326 40.9314 25.3801 38.7572 28.648L34.8141 34.7796Z" fill="#222222"/>
<path d="M22.4534 76.4623C20.3051 73.8397 19.7958 70.1803 22.1522 67.7838C24.6991 65.1936 28.5753 65.9442 30.9271 68.336C33.2789 65.9442 37.155 65.1936 39.7019 67.7838C42.0584 70.1803 41.5491 73.8397 39.4007 76.4623C37.0808 79.2943 33.9047 81.7276 30.9271 83.8377C27.9494 81.7276 24.7733 79.2943 22.4534 76.4623Z" fill="#F24E1E"/>
<path d="M87.1287 173.624C78.8659 163.537 76.9069 149.462 85.9702 140.245C95.7658 130.282 110.674 133.169 119.72 142.369C128.765 133.17 143.673 130.282 153.469 140.245C162.532 149.462 160.573 163.537 152.311 173.624C143.388 184.516 131.172 193.875 119.72 201.991C108.267 193.875 96.0513 184.516 87.1287 173.624Z" fill="#F24E1E"/>
</svg>
