<svg width="240" height="336" viewBox="0 0 240 336" fill="none" xmlns="http://www.w3.org/2000/svg">
<rect width="240" height="336" rx="11" fill="white"/>
<rect width="240" height="336" rx="11" fill="white"/>
<path d="M198.037 294.523C198.037 290.894 199.028 288.209 201.047 286.54C203.066 284.871 205.563 284 208.5 284C211.29 284 213.713 284.835 215.843 286.54C217.935 288.209 219 290.894 219 294.523V299.422H214.08V294.487C214.08 291.801 213.53 289.951 212.428 288.899C211.327 287.846 210.042 287.375 208.5 287.375C206.811 287.375 205.453 287.883 204.425 288.899C203.397 289.915 202.92 291.765 202.92 294.487V318H198V294.523H198.037Z" fill="#222222"/>
<path d="M217.547 259.538C219.695 262.16 220.204 265.82 217.848 268.216C215.301 270.806 211.425 270.056 209.073 267.664C206.721 270.056 202.845 270.806 200.298 268.216C197.942 265.82 198.451 262.16 200.599 259.538C202.919 256.706 206.095 254.272 209.073 252.162C212.051 254.272 215.227 256.706 217.547 259.538Z" fill="#F24E1E"/>
<path d="M41.9633 41.4771C41.9633 45.1057 40.9721 47.7909 38.9528 49.46C36.9336 51.1292 34.4371 52 31.5 52C28.7098 52 26.2867 51.1655 24.1574 49.46C22.0647 47.7909 21 45.1057 21 41.4771V36.5784H25.9196V41.5134C25.9196 44.1986 26.4703 46.0492 27.5717 47.1015C28.6731 48.1538 29.9581 48.6254 31.5 48.6254C33.1888 48.6254 34.5472 48.1175 35.5752 47.1015C36.6031 46.0855 37.0804 44.2348 37.0804 41.5134V18H42V41.4771H41.9633Z" fill="#222222"/>
<path d="M22.4534 76.4623C20.3051 73.8397 19.7958 70.1803 22.1522 67.7838C24.6991 65.1936 28.5753 65.9442 30.9271 68.336C33.2789 65.9442 37.155 65.1936 39.7019 67.7838C42.0584 70.1803 41.5491 73.8397 39.4007 76.4623C37.0808 79.2943 33.9047 81.7276 30.9271 83.8377C27.9494 81.7276 24.7733 79.2943 22.4534 76.4623Z" fill="#F24E1E"/>
<path d="M87.1287 173.624C78.8659 163.537 76.9069 149.462 85.9702 140.245C95.7658 130.282 110.674 133.169 119.72 142.369C128.765 133.17 143.673 130.282 153.469 140.245C162.532 149.462 160.573 163.537 152.311 173.624C143.388 184.516 131.172 193.875 119.72 201.991C108.267 193.875 96.0513 184.516 87.1287 173.624Z" fill="#F24E1E"/>
</svg>
