<svg width="240" height="336" viewBox="0 0 240 336" fill="none" xmlns="http://www.w3.org/2000/svg">
<rect width="240" height="336" rx="11" fill="white"/>
<rect width="240" height="336" rx="11" fill="white"/>
<path d="M215.069 317.927V301.715L207.562 310.188C204.875 313.195 203.477 315.506 203.366 317.156L203.293 317.927H198.362L198.435 316.79C198.619 314.882 200.386 312.022 203.771 308.207L208.334 302.999L201.784 294.453C198.84 290.639 197.258 287.631 197.11 285.504L197 284H201.931L202.005 285.174C202.152 287.154 203.366 289.648 205.685 292.619L211.61 300.285L215.069 296.36V284.037H220V318H215.069V317.927Z" fill="#222222"/>
<path d="M217.547 259.538C219.695 262.16 220.204 265.82 217.848 268.216C215.301 270.806 211.425 270.056 209.073 267.664C206.721 270.056 202.845 270.806 200.298 268.216C197.942 265.82 198.451 262.16 200.599 259.538C202.919 256.706 206.095 254.272 209.073 252.162C212.051 254.272 215.227 256.706 217.547 259.538Z" fill="#F24E1E"/>
<path d="M24.9312 18.0734V34.2848L32.4384 25.8123C35.1248 22.8048 36.5232 20.4941 36.6336 18.8436L36.7072 18.0734H41.6384L41.5648 19.2104C41.3808 21.1176 39.6144 23.9785 36.2288 27.7929L31.6656 33.001L38.216 41.5469C41.16 45.3614 42.7424 48.3689 42.8896 50.4962L43 52H38.0688L37.9952 50.8263C37.848 48.8457 36.6336 46.3517 34.3152 43.3808L28.3904 35.7152L24.9312 39.6396V51.9633H20V18H24.9312V18.0734Z" fill="#222222"/>
<path d="M22.4534 76.4623C20.3051 73.8397 19.7958 70.1803 22.1522 67.7838C24.6991 65.1936 28.5753 65.9442 30.9271 68.336C33.2789 65.9442 37.155 65.1936 39.7019 67.7838C42.0584 70.1803 41.5491 73.8397 39.4007 76.4623C37.0808 79.2943 33.9047 81.7276 30.9271 83.8377C27.9494 81.7276 24.7733 79.2943 22.4534 76.4623Z" fill="#F24E1E"/>
<path d="M87.1287 173.624C78.8659 163.537 76.9069 149.462 85.9702 140.245C95.7658 130.282 110.674 133.169 119.72 142.369C128.765 133.17 143.673 130.282 153.469 140.245C162.532 149.462 160.573 163.537 152.311 173.624C143.388 184.516 131.172 193.875 119.72 201.991C108.267 193.875 96.0513 184.516 87.1287 173.624Z" fill="#F24E1E"/>
</svg>
