<svg width="240" height="336" viewBox="0 0 240 336" fill="none" xmlns="http://www.w3.org/2000/svg">
<rect width="240" height="336" rx="11" fill="white"/>
<rect width="240" height="336" rx="11" fill="white"/>
<path d="M198 283H218.807V286.28C218.807 289.821 216.607 293.772 212.17 298.133L205.495 304.693C203.854 306.296 203.034 307.899 203.034 309.502C203.034 311.179 203.556 312.446 204.637 313.266C205.681 314.086 207.136 314.496 209 314.496C212.17 314.496 214.481 313.043 215.861 310.098L220 312.297C217.427 316.099 213.773 318 209.037 318C206.017 318 203.407 317.217 201.281 315.615C199.156 314.012 198.075 311.962 198.075 309.502C198.075 307.079 199.342 304.619 201.915 302.121L208.478 295.673C212.058 292.132 213.885 289.001 213.885 286.317H198.075V283H198Z" fill="#222222"/>
<path d="M217.546 259.538C219.695 262.16 220.204 265.82 217.848 268.216C215.301 270.806 211.425 270.056 209.073 267.664C206.721 270.056 202.845 270.806 200.298 268.216C197.942 265.82 198.451 262.16 200.599 259.538C202.919 256.706 206.095 254.272 209.073 252.162C212.05 254.272 215.227 256.706 217.546 259.538Z" fill="#F24E1E"/>
<path d="M42 53H21.1931V49.7199C21.1931 46.1789 23.3931 42.2279 27.8304 37.8669L34.505 31.3068C36.1457 29.704 36.9661 28.1012 36.9661 26.4984C36.9661 24.8211 36.4441 23.5537 35.3627 22.7337C34.3186 21.9137 32.8644 21.5037 30.9999 21.5037C27.8304 21.5037 25.5186 22.9574 24.1389 25.902L20 23.7029C22.5729 19.901 26.227 18 30.9626 18C33.983 18 36.5932 18.7827 38.7186 20.3855C40.844 21.9882 41.9254 24.0383 41.9254 26.4984C41.9254 28.9212 40.6576 31.3812 38.0847 33.8785L31.522 40.3269C27.9424 43.868 26.1152 46.999 26.1152 49.6827H41.9254V53H42Z" fill="#222222"/>
<path d="M22.4534 76.4623C20.3051 73.8397 19.7958 70.1803 22.1522 67.7838C24.6991 65.1936 28.5753 65.9442 30.9271 68.336C33.2789 65.9442 37.155 65.1936 39.7019 67.7838C42.0584 70.1803 41.5491 73.8397 39.4007 76.4623C37.0808 79.2943 33.9047 81.7276 30.9271 83.8377C27.9494 81.7276 24.7733 79.2943 22.4534 76.4623Z" fill="#F24E1E"/>
<path d="M125.894 135.236C134.624 130.222 145.628 130.029 153.407 137.925C157.408 141.987 159.26 146.993 159.371 152.184C156.561 152.871 154.477 155.405 154.477 158.425C154.477 160.505 155.464 162.353 156.996 163.528C155.809 166.242 154.206 168.85 152.249 171.235C144.246 180.985 133.595 189.504 123.221 197.001C122.202 196.321 120.978 195.925 119.661 195.925C118.346 195.925 117.123 196.321 116.104 196.999C105.731 189.503 95.0804 180.985 87.0787 171.235C85.1214 168.85 83.5179 166.242 82.3309 163.528C83.8628 162.353 84.8505 160.505 84.8505 158.425C84.8505 155.405 82.7658 152.871 79.9565 152.184C80.067 146.993 81.9196 141.987 85.9204 137.925C93.6994 130.029 104.703 130.222 113.433 135.236C113.306 135.741 113.238 136.269 113.238 136.813C113.238 140.362 116.115 143.239 119.664 143.239C123.212 143.239 126.089 140.362 126.089 136.813C126.089 136.269 126.021 135.741 125.894 135.236Z" fill="#F24E1E"/>
<path d="M119.97 199.446C119.97 199.446 119.97 199.446 119.97 199.446C119.869 199.436 119.766 199.43 119.661 199.43C119.558 199.43 119.457 199.436 119.356 199.446C119.356 199.446 119.356 199.446 119.356 199.446C119.407 199.441 119.458 199.437 119.51 199.434C119.56 199.431 119.611 199.43 119.661 199.43C119.714 199.43 119.765 199.431 119.817 199.434C119.869 199.437 119.92 199.441 119.97 199.446Z" fill="#F24E1E"/>
<path d="M119.987 139.716C119.742 139.73 119.585 139.73 119.34 139.716C119.446 139.728 119.554 139.734 119.664 139.734C119.773 139.734 119.881 139.728 119.987 139.716Z" fill="#F24E1E"/>
<path d="M159.146 156.092C159.142 156.095 159.137 156.098 159.133 156.101C158.783 156.368 158.495 156.712 158.295 157.108C158.498 156.707 158.79 156.36 159.146 156.092C159.146 156.092 159.146 156.092 159.146 156.092Z" fill="#F24E1E"/>
<path d="M80.1814 156.092C80.1857 156.095 80.19 156.098 80.1942 156.101C80.8128 156.573 81.2375 157.286 81.3278 158.1C81.2368 157.28 80.8069 156.563 80.1814 156.092C80.1814 156.092 80.1814 156.092 80.1814 156.092Z" fill="#F24E1E"/>
<path fill-rule="evenodd" clip-rule="evenodd" d="M164.055 152.825C164.116 146.349 161.944 139.929 156.732 134.639C146.916 124.675 133.404 125.399 123.176 131.432C122.166 130.772 120.96 130.388 119.664 130.388C118.367 130.388 117.161 130.772 116.151 131.432C105.923 125.399 92.4109 124.675 82.5947 134.639C77.383 139.929 75.2114 146.349 75.2723 152.825C73.3189 153.928 72 156.022 72 158.425C72 161.772 74.5583 164.521 77.8257 164.823C79.2282 168.198 81.1544 171.385 83.4694 174.206C91.8649 184.435 102.933 193.255 113.417 200.828C113.299 201.316 113.236 201.826 113.236 202.35C113.236 205.899 116.113 208.776 119.661 208.776C123.21 208.776 126.087 205.899 126.087 202.35C126.087 201.827 126.024 201.318 125.906 200.831C136.391 193.257 147.461 184.437 155.858 174.206C158.173 171.385 160.099 168.198 161.501 164.823C164.769 164.521 167.327 161.772 167.327 158.425C167.327 156.022 166.008 153.928 164.055 152.825ZM153.407 137.925C145.628 130.029 134.624 130.222 125.894 135.236C126.021 135.74 126.089 136.269 126.089 136.813C126.089 140.362 123.212 143.238 119.664 143.238C116.115 143.238 113.238 140.362 113.238 136.813C113.238 136.269 113.306 135.74 113.433 135.236C104.703 130.222 93.6994 130.029 85.9204 137.925C81.9195 141.986 80.0669 146.992 79.9565 152.184C82.7657 152.87 84.8505 155.404 84.8505 158.425C84.8505 160.505 83.8628 162.353 82.3309 163.528C83.5179 166.242 85.1214 168.85 87.0786 171.235C95.0804 180.984 105.731 189.503 116.104 196.999C117.122 196.321 118.346 195.925 119.661 195.925C120.978 195.925 122.202 196.321 123.221 197.001C133.595 189.504 144.246 180.985 152.248 171.235C154.206 168.85 155.809 166.242 156.996 163.528C155.464 162.353 154.477 160.505 154.477 158.425C154.477 155.404 156.561 152.87 159.371 152.184C159.26 146.992 157.408 141.986 153.407 137.925ZM119.334 139.715C118.113 139.578 117.12 138.688 116.829 137.52C116.773 137.294 116.743 137.057 116.743 136.813C116.743 135.2 118.051 133.893 119.664 133.893C121.277 133.893 122.584 135.2 122.584 136.813C122.584 137.057 122.554 137.294 122.498 137.52C122.207 138.688 121.214 139.578 119.993 139.715C119.885 139.727 119.775 139.734 119.664 139.734C119.552 139.734 119.442 139.727 119.334 139.715ZM119.51 199.434C119.56 199.431 119.61 199.43 119.661 199.43C119.714 199.43 119.765 199.431 119.817 199.434C121.358 199.515 122.582 200.79 122.582 202.35C122.582 202.692 122.523 203.02 122.415 203.325C122.015 204.458 120.934 205.27 119.664 205.271C119.663 205.271 119.662 205.271 119.661 205.271C118.388 205.271 117.305 204.457 116.906 203.32C116.799 203.017 116.741 202.69 116.741 202.35C116.741 200.788 117.967 199.513 119.51 199.434ZM75.5047 158.425C75.5047 158.074 75.5668 157.736 75.6807 157.424C76.0893 156.304 77.1639 155.505 78.4252 155.505C79.0902 155.505 79.7033 155.727 80.1942 156.101C80.8941 156.635 81.3458 157.477 81.3458 158.425C81.3458 158.931 81.2171 159.407 80.9908 159.822C80.4954 160.73 79.5323 161.346 78.4252 161.346C77.6099 161.346 76.8727 161.012 76.3428 160.473C75.8245 159.946 75.5047 159.223 75.5047 158.425ZM158.336 159.822C158.11 159.407 157.981 158.931 157.981 158.425C157.981 157.477 158.433 156.635 159.133 156.101C159.624 155.727 160.237 155.505 160.902 155.505C162.163 155.505 163.238 156.304 163.646 157.424C163.76 157.736 163.822 158.074 163.822 158.425C163.822 159.223 163.503 159.946 162.984 160.473C162.454 161.012 161.717 161.346 160.902 161.346C159.795 161.346 158.832 160.73 158.336 159.822Z" fill="#2C2C2C"/>
<path d="M119.664 139.734C121.277 139.734 122.584 138.426 122.584 136.813C122.584 135.2 121.277 133.893 119.664 133.893C118.051 133.893 116.743 135.2 116.743 136.813C116.743 138.426 118.051 139.734 119.664 139.734Z" fill="white"/>
<path d="M78.4252 161.346C80.0382 161.346 81.3458 160.038 81.3458 158.425C81.3458 156.812 80.0382 155.505 78.4252 155.505C76.8122 155.505 75.5046 156.812 75.5046 158.425C75.5046 160.038 76.8122 161.346 78.4252 161.346Z" fill="white"/>
<path d="M160.902 161.346C162.515 161.346 163.822 160.038 163.822 158.425C163.822 156.812 162.515 155.505 160.902 155.505C159.289 155.505 157.981 156.812 157.981 158.425C157.981 160.038 159.289 161.346 160.902 161.346Z" fill="white"/>
<path d="M122.582 202.351C122.582 203.964 121.274 205.271 119.661 205.271C118.048 205.271 116.741 203.964 116.741 202.351C116.741 200.738 118.048 199.43 119.661 199.43C121.274 199.43 122.582 200.738 122.582 202.351Z" fill="white"/>
</svg>
