<svg width="240" height="336" viewBox="0 0 240 336" fill="none" xmlns="http://www.w3.org/2000/svg">
<rect width="240" height="336" rx="11" fill="white"/>
<rect width="240" height="336" rx="11" fill="white"/>
<path d="M220 288.637L216.016 290.7C214.639 287.863 212.14 286.463 208.482 286.463C206.598 286.463 205.005 286.979 203.737 288.01C202.469 289.042 201.817 290.884 201.817 293.5C201.817 295.968 202.578 297.663 204.063 298.547C205.548 299.432 207.323 299.874 209.315 299.874H211.452V303.116H209.315C207.613 303.116 206.091 303.595 204.751 304.516C203.375 305.474 202.723 306.947 202.723 308.937C202.723 310.889 203.266 312.326 204.353 313.21C205.439 314.095 206.816 314.537 208.482 314.537C211.561 314.537 213.806 313.137 215.146 310.3L219.131 312.363C216.45 316.121 212.901 318 208.446 318C205.331 318 202.759 317.189 200.803 315.532C198.847 313.874 197.869 311.7 197.869 308.937C197.869 305.289 199.789 302.784 203.665 301.495C199.21 300.5 197 297.847 197 293.5C197 290.074 198.087 287.458 200.26 285.689C202.433 283.921 205.15 283 208.482 283C213.48 283 217.32 284.879 220 288.637Z" fill="#222222"/>
<path d="M217.547 259.538C219.695 262.16 220.204 265.82 217.848 268.216C215.301 270.806 211.425 270.056 209.073 267.664C206.721 270.056 202.845 270.806 200.298 268.216C197.942 265.82 198.451 262.16 200.599 259.538C202.919 256.706 206.095 254.272 209.073 252.162C212.051 254.272 215.227 256.706 217.547 259.538Z" fill="#F24E1E"/>
<path d="M20 47.3632L23.9843 45.3C25.3606 48.1369 27.8598 49.5369 31.5181 49.5369C33.4015 49.5369 34.9952 49.0211 36.2629 47.9895C37.5307 46.9579 38.1826 45.1159 38.1826 42.5001C38.1826 40.0317 37.422 38.3368 35.937 37.4526C34.4519 36.5684 32.6771 36.1264 30.685 36.1264H28.548V32.8842H30.685C32.3873 32.8842 33.9086 32.4053 35.2488 31.4842C36.6252 30.5263 37.2771 29.0527 37.2771 27.0632C37.2771 25.1106 36.7339 23.6738 35.6473 22.7895C34.5606 21.9053 33.1842 21.4632 31.5181 21.4632C28.4393 21.4632 26.1937 22.8633 24.8535 25.7001L20.8693 23.6368C23.5496 19.8789 27.0992 18 31.5543 18C34.6693 18 37.2409 18.8106 39.1968 20.4685C41.1527 22.1264 42.1306 24.3001 42.1306 27.0632C42.1306 30.7106 40.2109 33.2158 36.3353 34.5053C40.7905 35.5 43 38.1527 43 42.5001C43 45.9264 41.9133 48.5422 39.7401 50.3106C37.5668 52.079 34.8504 53 31.5181 53C26.5197 53 22.6803 51.1211 20 47.3632Z" fill="#222222"/>
<path d="M22.4534 76.4623C20.3051 73.8397 19.7958 70.1803 22.1522 67.7838C24.6991 65.1936 28.5753 65.9442 30.9271 68.336C33.2789 65.9442 37.155 65.1936 39.7019 67.7838C42.0584 70.1803 41.5491 73.8397 39.4007 76.4623C37.0808 79.2943 33.9047 81.7276 30.9271 83.8377C27.9494 81.7276 24.7733 79.2943 22.4534 76.4623Z" fill="#F24E1E"/>
<path d="M87.1287 173.624C78.8659 163.537 76.9069 149.462 85.9702 140.245C95.7658 130.282 110.674 133.169 119.72 142.369C128.765 133.17 143.673 130.282 153.469 140.245C162.532 149.462 160.573 163.537 152.311 173.624C143.388 184.516 131.172 193.875 119.72 201.991C108.267 193.875 96.0513 184.516 87.1287 173.624Z" fill="#F24E1E"/>
</svg>
