<svg width="240" height="336" viewBox="0 0 240 336" fill="none" xmlns="http://www.w3.org/2000/svg">
<rect width="240" height="336" rx="11" fill="white"/>
<rect width="240" height="336" rx="11" fill="white"/>
<path d="M198.037 294.523C198.037 290.894 199.028 288.209 201.047 286.54C203.066 284.871 205.563 284 208.5 284C211.29 284 213.713 284.835 215.843 286.54C217.935 288.209 219 290.894 219 294.523V299.422H214.08V294.487C214.08 291.801 213.53 289.951 212.428 288.899C211.327 287.846 210.042 287.375 208.5 287.375C206.811 287.375 205.453 287.883 204.425 288.899C203.397 289.915 202.92 291.765 202.92 294.487V318H198V294.523H198.037Z" fill="#222222"/>
<path d="M217.547 262.462C219.695 259.84 220.204 256.18 217.848 253.784C215.301 251.194 211.425 251.944 209.073 254.336C206.721 251.944 202.845 251.194 200.298 253.784C197.942 256.18 198.451 259.84 200.599 262.462C202.919 265.294 206.095 267.728 209.073 269.838C212.051 267.728 215.227 265.294 217.547 262.462Z" fill="#2C2C2C"/>
<path d="M41.9633 41.4771C41.9633 45.1057 40.9721 47.7909 38.9528 49.46C36.9336 51.1292 34.4371 52 31.5 52C28.7098 52 26.2867 51.1655 24.1574 49.46C22.0647 47.7909 21 45.1057 21 41.4771V36.5784H25.9196V41.5134C25.9196 44.1986 26.4703 46.0492 27.5717 47.1015C28.6731 48.1538 29.9581 48.6254 31.5 48.6254C33.1888 48.6254 34.5472 48.1175 35.5752 47.1015C36.6031 46.0855 37.0804 44.2348 37.0804 41.5134V18H42V41.4771H41.9633Z" fill="#222222"/>
<path d="M22.4534 73.5377C20.3051 76.1603 19.7958 79.8197 22.1522 82.2162C24.6991 84.8064 28.5753 84.0558 30.9271 81.664C33.2789 84.0558 37.155 84.8064 39.7019 82.2162C42.0584 79.8197 41.5491 76.1603 39.4007 73.5377C37.0808 70.7057 33.9047 68.2724 30.9271 66.1623C27.9494 68.2724 24.7733 70.7057 22.4534 73.5377Z" fill="#2C2C2C"/>
<path d="M87.1287 162.376C78.8659 172.463 76.9069 186.538 85.9702 195.755C95.7658 205.718 110.674 202.831 119.72 193.631C128.765 202.83 143.673 205.718 153.469 195.755C162.532 186.538 160.573 172.463 152.311 162.376C143.388 151.484 131.172 142.125 119.72 134.009C108.267 142.125 96.0513 151.484 87.1287 162.376Z" fill="#2C2C2C"/>
</svg>
