<svg width="240" height="336" viewBox="0 0 240 336" fill="none" xmlns="http://www.w3.org/2000/svg">
<rect width="240" height="336" rx="11" fill="white"/>
<rect width="240" height="336" rx="11" fill="white"/>
<path d="M205.186 301.22C207.987 296.924 209.497 292.335 209.645 287.415L209.792 284H214.73L214.583 287.672C214.399 292.445 212.519 297.585 208.982 303.056L205.002 309.225C203.601 311.318 202.938 313.153 202.938 314.769H220V318H198V316.421C198 313.667 199.069 310.62 201.243 307.352L205.186 301.22Z" fill="#222222"/>
<path d="M217.547 262.462C219.695 259.84 220.204 256.18 217.848 253.784C215.301 251.194 211.425 251.944 209.073 254.336C206.721 251.944 202.845 251.194 200.298 253.784C197.942 256.18 198.451 259.84 200.599 262.462C202.919 265.294 206.095 267.728 209.073 269.838C212.051 267.728 215.227 265.294 217.547 262.462Z" fill="#2C2C2C"/>
<path d="M34.8141 34.7796C32.0134 39.0756 30.5026 43.6652 30.3552 48.5853L30.2077 52H25.2697L25.4171 48.3283C25.6013 43.5551 27.4808 38.4146 31.0184 32.9438L34.9983 26.7753C36.3987 24.6825 37.062 22.8466 37.062 21.231H20V18H42V19.5788C42 22.3326 40.9314 25.3801 38.7572 28.648L34.8141 34.7796Z" fill="#222222"/>
<path d="M22.4534 73.5377C20.3051 76.1603 19.7958 79.8197 22.1522 82.2162C24.6991 84.8064 28.5753 84.0558 30.9271 81.664C33.2789 84.0558 37.155 84.8064 39.7019 82.2162C42.0584 79.8197 41.5491 76.1603 39.4007 73.5377C37.0808 70.7057 33.9047 68.2724 30.9271 66.1623C27.9494 68.2724 24.7733 70.7057 22.4534 73.5377Z" fill="#2C2C2C"/>
<path d="M87.1287 162.376C78.8659 172.463 76.9069 186.538 85.9702 195.755C95.7658 205.718 110.674 202.831 119.72 193.631C128.765 202.83 143.673 205.718 153.469 195.755C162.532 186.538 160.573 172.463 152.311 162.376C143.388 151.484 131.172 142.125 119.72 134.009C108.267 142.125 96.0513 151.484 87.1287 162.376Z" fill="#2C2C2C"/>
</svg>
