<svg width="240" height="336" viewBox="0 0 240 336" fill="none" xmlns="http://www.w3.org/2000/svg">
<rect width="240" height="336" rx="11" fill="white"/>
<rect width="240" height="336" rx="11" fill="white"/>
<path d="M198 293.673C198 290.287 199.022 287.637 201.101 285.797C203.144 283.92 205.771 283 208.982 283C211.973 283 214.527 283.92 216.716 285.797C218.905 287.674 220 290.802 220 295.255V305.303C220 309.609 218.942 312.774 216.862 314.872C214.783 316.969 211.974 318 208.471 318C204.531 318 201.32 316.454 198.803 313.326L202.816 311.155C204.056 313.4 205.917 314.504 208.435 314.504C210.514 314.504 212.156 313.841 213.323 312.516C214.491 311.191 215.111 308.799 215.111 305.266V300.518C213.36 303.021 210.842 304.272 207.522 304.272C204.677 304.272 202.378 303.352 200.627 301.549C198.876 299.745 198 297.169 198 293.673ZM202.889 293.71C202.889 296.47 203.4 298.347 204.421 299.377C205.443 300.371 206.756 300.886 208.398 300.886C211.9 300.886 214.126 299.267 215.075 296.028C215.075 291.87 214.491 289.257 213.323 288.152C212.156 287.048 210.696 286.496 208.945 286.496C207.267 286.496 205.808 287.048 204.64 288.152C203.473 289.257 202.889 291.097 202.889 293.71Z" fill="#222222"/>
<path d="M217.547 262.462C219.695 259.84 220.204 256.18 217.848 253.784C215.301 251.194 211.425 251.944 209.073 254.336C206.721 251.944 202.845 251.194 200.298 253.784C197.942 256.18 198.451 259.84 200.599 262.462C202.919 265.294 206.095 267.728 209.073 269.838C212.051 267.728 215.227 265.294 217.547 262.462Z" fill="#2C2C2C"/>
<path d="M42 42.327C42 45.7129 40.9784 48.3628 38.8988 50.203C36.8557 52.08 34.2288 53 31.0182 53C28.0265 53 25.4727 52.08 23.2836 50.203C21.0946 48.326 20 45.1977 20 40.7445V30.6971C20 26.3911 21.058 23.2261 23.1376 21.1283C25.2172 19.0305 28.0265 18 31.529 18C35.4692 18 38.6799 19.5457 41.1973 22.674L37.1841 24.8454C35.9436 22.6004 34.0829 21.4963 31.5655 21.4963C29.4859 21.4963 27.8441 22.1588 26.6766 23.4837C25.5091 24.8086 24.8889 27.2008 24.8889 30.734V35.4816C26.6402 32.979 29.1575 31.7276 32.4776 31.7276C35.3233 31.7276 37.6219 32.6478 39.3731 34.4511C41.1244 36.2545 42 38.8307 42 42.327ZM37.1111 42.2903C37.1111 39.53 36.6003 37.653 35.5788 36.6225C34.5572 35.6288 33.2438 35.1136 31.602 35.1136C28.0995 35.1136 25.8739 36.733 24.9253 39.9717C24.9253 44.1305 25.5091 46.7434 26.6766 47.8475C27.8441 48.9516 29.3035 49.5037 31.0548 49.5037C32.733 49.5037 34.1924 48.9516 35.3599 47.8475C36.5273 46.7434 37.1111 44.9033 37.1111 42.2903Z" fill="#222222"/>
<path d="M22.4534 73.5377C20.3051 76.1603 19.7958 79.8197 22.1522 82.2162C24.6991 84.8064 28.5753 84.0558 30.9271 81.664C33.2789 84.0558 37.155 84.8064 39.7019 82.2162C42.0584 79.8197 41.5491 76.1603 39.4007 73.5377C37.0808 70.7057 33.9047 68.2724 30.9271 66.1623C27.9494 68.2724 24.7733 70.7057 22.4534 73.5377Z" fill="#2C2C2C"/>
<path d="M87.1287 162.376C78.8659 172.463 76.9069 186.538 85.9702 195.755C95.7658 205.718 110.674 202.831 119.72 193.631C128.765 202.83 143.673 205.718 153.469 195.755C162.532 186.538 160.573 172.463 152.311 162.376C143.388 151.484 131.172 142.125 119.72 134.009C108.267 142.125 96.0513 151.484 87.1287 162.376Z" fill="#2C2C2C"/>
</svg>
