<svg width="240" height="336" viewBox="0 0 240 336" fill="none" xmlns="http://www.w3.org/2000/svg">
<rect width="240" height="336" rx="11" fill="white"/>
<rect width="240" height="336" rx="11" fill="white"/>
<path d="M220 288.637L216.016 290.7C214.639 287.863 212.14 286.463 208.482 286.463C206.598 286.463 205.005 286.979 203.737 288.01C202.469 289.042 201.817 290.884 201.817 293.5C201.817 295.968 202.578 297.663 204.063 298.547C205.548 299.432 207.323 299.874 209.315 299.874H211.452V303.116H209.315C207.613 303.116 206.091 303.595 204.751 304.516C203.375 305.474 202.723 306.947 202.723 308.937C202.723 310.889 203.266 312.326 204.353 313.21C205.439 314.095 206.816 314.537 208.482 314.537C211.561 314.537 213.806 313.137 215.146 310.3L219.131 312.363C216.45 316.121 212.901 318 208.446 318C205.331 318 202.759 317.189 200.803 315.532C198.847 313.874 197.869 311.7 197.869 308.937C197.869 305.289 199.789 302.784 203.665 301.495C199.21 300.5 197 297.847 197 293.5C197 290.074 198.087 287.458 200.26 285.689C202.433 283.921 205.15 283 208.482 283C213.48 283 217.32 284.879 220 288.637Z" fill="#222222"/>
<path d="M217.547 262.462C219.695 259.84 220.204 256.18 217.848 253.784C215.301 251.194 211.425 251.944 209.073 254.336C206.721 251.944 202.845 251.194 200.298 253.784C197.942 256.18 198.451 259.84 200.599 262.462C202.919 265.294 206.095 267.728 209.073 269.838C212.051 267.728 215.227 265.294 217.547 262.462Z" fill="#2C2C2C"/>
<path d="M20 47.3632L23.9843 45.3C25.3606 48.1369 27.8598 49.5369 31.5181 49.5369C33.4015 49.5369 34.9952 49.0211 36.2629 47.9895C37.5307 46.9579 38.1826 45.1159 38.1826 42.5001C38.1826 40.0317 37.422 38.3368 35.937 37.4526C34.4519 36.5684 32.6771 36.1264 30.685 36.1264H28.548V32.8842H30.685C32.3873 32.8842 33.9086 32.4053 35.2488 31.4842C36.6252 30.5263 37.2771 29.0527 37.2771 27.0632C37.2771 25.1106 36.7339 23.6738 35.6473 22.7895C34.5606 21.9053 33.1842 21.4632 31.5181 21.4632C28.4393 21.4632 26.1937 22.8633 24.8535 25.7001L20.8693 23.6368C23.5496 19.8789 27.0992 18 31.5543 18C34.6693 18 37.2409 18.8106 39.1968 20.4685C41.1527 22.1264 42.1306 24.3001 42.1306 27.0632C42.1306 30.7106 40.2109 33.2158 36.3353 34.5053C40.7905 35.5 43 38.1527 43 42.5001C43 45.9264 41.9133 48.5422 39.7401 50.3106C37.5668 52.079 34.8504 53 31.5181 53C26.5197 53 22.6803 51.1211 20 47.3632Z" fill="#222222"/>
<path d="M22.4534 73.5377C20.3051 76.1603 19.7958 79.8197 22.1522 82.2162C24.6991 84.8064 28.5753 84.0558 30.9271 81.664C33.2789 84.0558 37.155 84.8064 39.7019 82.2162C42.0584 79.8197 41.5491 76.1603 39.4007 73.5377C37.0808 70.7057 33.9047 68.2724 30.9271 66.1623C27.9494 68.2724 24.7733 70.7057 22.4534 73.5377Z" fill="#2C2C2C"/>
<path d="M87.1287 162.376C78.8659 172.463 76.9069 186.538 85.9702 195.755C95.7658 205.718 110.674 202.831 119.72 193.631C128.765 202.83 143.673 205.718 153.469 195.755C162.532 186.538 160.573 172.463 152.311 162.376C143.388 151.484 131.172 142.125 119.72 134.009C108.267 142.125 96.0513 151.484 87.1287 162.376Z" fill="#2C2C2C"/>
</svg>
