<svg width="240" height="336" viewBox="0 0 240 336" fill="none" xmlns="http://www.w3.org/2000/svg">
<rect width="240" height="336" rx="11" fill="white"/>
<rect width="240" height="336" rx="11" fill="white"/>
<path d="M215.146 285.907V284H220V285.907C220 289.171 218.769 294.636 216.269 302.339L211.235 318H205.765L200.731 302.339C198.231 294.636 197 289.171 197 285.907V284H201.854V285.907C201.854 287.448 202.143 289.465 202.687 291.959H214.35C214.857 289.428 215.146 287.411 215.146 285.907ZM208.482 311.948L212.104 300.211C212.683 298.378 213.154 296.727 213.553 295.187H203.411C203.809 296.727 204.28 298.414 204.86 300.211L208.482 311.948Z" fill="#222222"/>
<path d="M217.547 262.462C219.695 259.84 220.204 256.18 217.848 253.784C215.301 251.194 211.425 251.944 209.073 254.336C206.721 251.944 202.845 251.194 200.298 253.784C197.942 256.18 198.451 259.84 200.599 262.462C202.919 265.294 206.095 267.728 209.073 269.838C212.051 267.728 215.227 265.294 217.547 262.462Z" fill="#2C2C2C"/>
<path d="M24.8536 50.0928V52H20V50.0928C20 46.8285 21.2315 41.3635 23.7307 33.6613L28.7653 18H34.2347L39.2693 33.6613C41.7685 41.3635 43 46.8285 43 50.0928V52H38.1465V50.0928C38.1465 48.5524 37.8567 46.5351 37.3134 44.041H25.6504C25.1433 46.5718 24.8536 48.589 24.8536 50.0928ZM31.5181 24.0518L27.8961 35.7886C27.3165 37.6225 26.8457 39.273 26.4472 40.8134H36.589C36.1906 39.273 35.7197 37.5858 35.1402 35.7886L31.5181 24.0518Z" fill="#222222"/>
<path d="M22.4534 73.5377C20.3051 76.1603 19.7958 79.8197 22.1522 82.2162C24.6991 84.8064 28.5753 84.0558 30.9271 81.664C33.2789 84.0558 37.155 84.8064 39.7019 82.2162C42.0584 79.8197 41.5491 76.1603 39.4007 73.5377C37.0808 70.7057 33.9047 68.2724 30.9271 66.1623C27.9494 68.2724 24.7733 70.7057 22.4534 73.5377Z" fill="#2C2C2C"/>
<path d="M87.1287 162.376C78.8659 172.463 76.9069 186.538 85.9702 195.755C95.7658 205.718 110.674 202.831 119.72 193.631C128.765 202.83 143.673 205.718 153.469 195.755C162.532 186.538 160.573 172.463 152.311 162.376C143.388 151.484 131.172 142.125 119.72 134.009C108.267 142.125 96.0513 151.484 87.1287 162.376Z" fill="#2C2C2C"/>
</svg>
