<svg width="240" height="336" viewBox="0 0 240 336" fill="none" xmlns="http://www.w3.org/2000/svg">
<rect width="240" height="336" rx="11" fill="white"/>
<rect width="240" height="336" rx="11" fill="white"/>
<path d="M215.069 317.927V301.715L207.562 310.188C204.875 313.195 203.477 315.506 203.366 317.156L203.293 317.927H198.362L198.435 316.79C198.619 314.882 200.386 312.022 203.771 308.207L208.334 302.999L201.784 294.453C198.84 290.639 197.258 287.631 197.11 285.504L197 284H201.931L202.005 285.174C202.152 287.154 203.366 289.648 205.685 292.619L211.61 300.285L215.069 296.36V284.037H220V318H215.069V317.927Z" fill="#222222"/>
<path d="M217.547 262.462C219.695 259.84 220.204 256.18 217.848 253.784C215.301 251.194 211.425 251.944 209.073 254.336C206.721 251.944 202.845 251.194 200.298 253.784C197.942 256.18 198.451 259.84 200.599 262.462C202.919 265.294 206.095 267.728 209.073 269.838C212.051 267.728 215.227 265.294 217.547 262.462Z" fill="#2C2C2C"/>
<path d="M24.9312 18.0734V34.2848L32.4384 25.8123C35.1248 22.8048 36.5232 20.4941 36.6336 18.8436L36.7072 18.0734H41.6384L41.5648 19.2104C41.3808 21.1176 39.6144 23.9785 36.2288 27.7929L31.6656 33.001L38.216 41.5469C41.16 45.3614 42.7424 48.3689 42.8896 50.4962L43 52H38.0688L37.9952 50.8263C37.848 48.8457 36.6336 46.3517 34.3152 43.3808L28.3904 35.7152L24.9312 39.6396V51.9633H20V18H24.9312V18.0734Z" fill="#222222"/>
<path d="M22.4534 73.5377C20.3051 76.1603 19.7958 79.8197 22.1522 82.2162C24.6991 84.8064 28.5753 84.0558 30.9271 81.664C33.2789 84.0558 37.155 84.8064 39.7019 82.2162C42.0584 79.8197 41.5491 76.1603 39.4007 73.5377C37.0808 70.7057 33.9047 68.2724 30.9271 66.1623C27.9494 68.2724 24.7733 70.7057 22.4534 73.5377Z" fill="#2C2C2C"/>
<path d="M87.1287 162.376C78.8659 172.463 76.9069 186.538 85.9702 195.755C95.7658 205.718 110.674 202.831 119.72 193.631C128.765 202.83 143.673 205.718 153.469 195.755C162.532 186.538 160.573 172.463 152.311 162.376C143.388 151.484 131.172 142.125 119.72 134.009C108.267 142.125 96.0513 151.484 87.1287 162.376Z" fill="#2C2C2C"/>
</svg>
