<svg width="240" height="336" viewBox="0 0 240 336" fill="none" xmlns="http://www.w3.org/2000/svg">
<rect width="240" height="336" rx="11" fill="white"/>
<rect width="240" height="336" rx="11" fill="white"/>
<path d="M198 293.37C198 288.175 200.051 284.811 204.153 283.279L200.908 277H206.203L209 282.457C212.244 282.457 214.892 283.354 216.942 285.11C218.993 286.867 220 289.633 220 293.407V307.087C220 310.861 218.993 313.627 216.942 315.384C214.892 317.14 212.244 318 209 318C205.756 318 203.108 317.14 201.058 315.384C199.007 313.627 198 310.861 198 307.087V293.37ZM202.997 293.557V307.012C202.997 309.852 203.519 311.796 204.6 312.88C205.681 313.926 207.173 314.449 209.037 314.449C210.902 314.449 212.393 313.926 213.437 312.88C214.481 311.833 215.003 309.852 215.003 307.012V293.557C215.003 290.567 214.481 288.549 213.437 287.502C212.393 286.456 210.902 285.932 209 285.932C207.136 285.932 205.681 286.456 204.6 287.502C203.519 288.586 202.997 290.604 202.997 293.557Z" fill="#222222"/>
<path d="M217.547 262.462C219.695 259.84 220.204 256.18 217.848 253.784C215.301 251.194 211.425 251.944 209.073 254.336C206.721 251.944 202.845 251.194 200.298 253.784C197.942 256.18 198.451 259.84 200.599 262.462C202.919 265.294 206.095 267.728 209.073 269.838C212.051 267.728 215.227 265.294 217.547 262.462Z" fill="#2C2C2C"/>
<path d="M42 42.6299C42 47.825 39.9491 51.1887 35.8474 52.7211L39.0915 59H33.7966L31 53.5433C27.7559 53.5433 25.1085 52.6463 23.0576 50.8896C21.0068 49.133 20 46.3674 20 42.5926V28.9134C20 25.1386 21.0068 22.3729 23.0576 20.6163C25.1085 18.8597 27.7559 18 31 18C34.244 18 36.8915 18.8597 38.9424 20.6163C40.9932 22.3729 42 25.1386 42 28.9134V42.6299ZM37.0034 42.4431V28.9882C37.0034 26.1477 36.4813 24.2042 35.4 23.1203C34.3186 22.0738 32.8271 21.5506 30.9627 21.5506C29.0983 21.5506 27.6068 22.0738 26.5627 23.1203C25.5187 24.1668 24.9966 26.1477 24.9966 28.9882V42.4431C24.9966 45.433 25.5187 47.4512 26.5627 48.4977C27.6068 49.5442 29.0983 50.0675 31 50.0675C32.8644 50.0675 34.3186 49.5442 35.4 48.4977C36.4813 47.4139 37.0034 45.3957 37.0034 42.4431Z" fill="#222222"/>
<path d="M22.4534 73.5377C20.3051 76.1603 19.7958 79.8197 22.1522 82.2162C24.6991 84.8064 28.5753 84.0558 30.9271 81.664C33.2789 84.0558 37.155 84.8064 39.7019 82.2162C42.0584 79.8197 41.5491 76.1603 39.4007 73.5377C37.0808 70.7057 33.9047 68.2724 30.9271 66.1623C27.9494 68.2724 24.7733 70.7057 22.4534 73.5377Z" fill="#2C2C2C"/>
<path d="M87.1287 162.376C78.8659 172.463 76.9069 186.538 85.9702 195.755C95.7658 205.718 110.674 202.831 119.72 193.631C128.765 202.83 143.673 205.718 153.469 195.755C162.532 186.538 160.573 172.463 152.311 162.376C143.388 151.484 131.172 142.125 119.72 134.009C108.267 142.125 96.0513 151.484 87.1287 162.376Z" fill="#2C2C2C"/>
</svg>
