<svg width="89" height="127" viewBox="0 0 89 127" fill="none" xmlns="http://www.w3.org/2000/svg">
<g clip-path="url(#clip0_1_113)">
<path d="M84.9208 0H4.07917C1.82631 0 0 1.86148 0 4.15774V122.842C0 125.139 1.82631 127 4.07917 127H84.9208C87.1737 127 89 125.139 89 122.842V4.15774C89 1.86148 87.1737 0 84.9208 0Z" fill="white"/>
<path d="M84.9208 0H4.07917C1.82631 0 0 1.86148 0 4.15774V122.842C0 125.139 1.82631 127 4.07917 127H84.9208C87.1737 127 89 125.139 89 122.842V4.15774C89 1.86148 87.1737 0 84.9208 0Z" fill="white"/>
<path fill-rule="evenodd" clip-rule="evenodd" d="M79.3583 116.795C79.3583 118.674 77.8642 120.196 76.0208 120.196C74.1774 120.196 72.6833 118.674 72.6833 116.795V110.18C72.6833 108.301 74.1774 106.778 76.0208 106.778C77.8642 106.778 79.3583 108.301 79.3583 110.18V116.795ZM77.5042 117.362C77.5042 118.197 76.84 118.874 76.0208 118.874C75.2017 118.874 74.5375 118.197 74.5375 117.362V109.613C74.5375 108.778 75.2017 108.101 76.0208 108.101C76.84 108.101 77.5042 108.778 77.5042 109.613V117.362Z" fill="#222222"/>
<path d="M80.5546 119.818H82.325V106.967H80.5546V119.818Z" fill="#222222"/>
<path d="M80.6737 99.2044C81.4702 98.2133 81.659 96.8299 80.7853 95.9243C79.8408 94.9454 78.4034 95.2288 77.5312 96.133C76.659 95.2288 75.2217 94.9454 74.2772 95.9243C73.4035 96.8299 73.5923 98.2133 74.3888 99.2044C75.2491 100.275 76.4269 101.195 77.5312 101.992C78.6356 101.195 79.8133 100.275 80.6737 99.2044Z" fill="#2C2C2C"/>
<path fill-rule="evenodd" clip-rule="evenodd" d="M9.64166 10.2054C9.64166 8.32659 11.1359 6.80357 12.9792 6.80357C14.8224 6.80357 16.3167 8.32659 16.3167 10.2054V16.8199C16.3167 18.6987 14.8224 20.2217 12.9792 20.2217C11.1359 20.2217 9.64166 18.6987 9.64166 16.8199V10.2054ZM11.4958 9.63839C11.4958 8.80341 12.16 8.12649 12.9792 8.12649C13.7984 8.12649 14.4625 8.80341 14.4625 9.63839V17.3869C14.4625 18.2219 13.7984 18.8988 12.9792 18.8988C12.16 18.8988 11.4958 18.2219 11.4958 17.3869V9.63839Z" fill="#222222"/>
<path d="M8.44547 7.18155H6.675V20.0327H8.44547V7.18155Z" fill="#222222"/>
<path d="M8.32647 27.7955C7.52981 28.7868 7.34095 30.1699 8.21478 31.0758C9.15925 32.0548 10.5967 31.7711 11.4688 30.867C12.3409 31.7711 13.7783 32.0548 14.7228 31.0758C15.5967 30.1699 15.4078 28.7868 14.6111 27.7955C13.7508 26.7251 12.573 25.8053 11.4688 25.0078C10.3646 25.8053 9.18677 26.7251 8.32647 27.7955Z" fill="#2C2C2C"/>
<path d="M32.3102 61.3743C29.2461 65.1869 28.5196 70.5069 31.8806 73.9907C35.5132 77.7565 41.0416 76.6653 44.3962 73.1879C47.7504 76.6649 53.2787 77.7565 56.9114 73.9907C60.2723 70.5069 59.5458 65.1869 56.482 61.3743C53.1731 57.2574 48.643 53.7199 44.3962 50.6522C40.149 53.7199 35.619 57.2574 32.3102 61.3743Z" fill="#2C2C2C"/>
</g>
<defs>
<clipPath id="clip0_1_113">
<rect width="89" height="127" fill="white"/>
</clipPath>
</defs>
</svg>
