<svg width="60" height="84" viewBox="0 0 60 84" fill="none" xmlns="http://www.w3.org/2000/svg">
<g clip-path="url(#clip0_1_4347)">
<path d="M57.25 0H2.75C1.23122 0 0 1.23122 0 2.75V81.25C0 82.7688 1.23122 84 2.75 84H57.25C58.7688 84 60 82.7688 60 81.25V2.75C60 1.23122 58.7688 0 57.25 0Z" fill="white"/>
<path d="M57.25 0H2.75C1.23122 0 0 1.23122 0 2.75V81.25C0 82.7688 1.23122 84 2.75 84H57.25C58.7688 84 60 82.7688 60 81.25V2.75C60 1.23122 58.7688 0 57.25 0Z" fill="white"/>
<path d="M49.5 73.7275C49.5 72.8578 49.7737 72.187 50.321 71.7158C50.8682 71.2448 51.5247 71 52.3092 71C53.5043 71 54.398 71.435 55 72.2958L53.9967 72.8033C53.65 72.169 53.0938 71.8518 52.3185 71.8518C51.8988 71.8518 51.5247 71.9968 51.2057 72.2868C50.8865 72.5768 50.7223 73.057 50.7223 73.7275C50.7223 74.4073 50.8772 74.8785 51.1965 75.1503C51.5157 75.4223 52.0265 75.558 52.738 75.558H54.3708V79.5H49.728V78.7025H53.1485V76.41H52.5283C51.616 76.41 50.8865 76.2015 50.33 75.7848C49.7738 75.3678 49.5 74.679 49.5 73.7275Z" fill="#222222"/>
<path d="M54.3867 65.6155C54.9237 64.96 55.051 64.045 54.462 63.446C53.8253 62.7985 52.8563 62.986 52.2682 63.584C51.6802 62.986 50.7113 62.7985 50.0745 63.446C49.4855 64.045 49.6128 64.96 50.1498 65.6155C50.7298 66.3235 51.5238 66.932 52.2682 67.4595C53.0127 66.932 53.8067 66.3235 54.3867 65.6155Z" fill="#2C2C2C"/>
<path d="M10.5 10.2724C10.5 11.1423 10.2264 11.8129 9.6791 12.2841C9.13185 12.7554 8.47512 13 7.69072 13C6.49587 13 5.602 12.5651 5 11.7042L6.00332 11.1967C6.34993 11.831 6.9063 12.1482 7.6816 12.1482C8.10118 12.1482 8.47513 12.0032 8.79438 11.7132C9.1136 11.4233 9.27777 10.943 9.27777 10.2724C9.27777 9.59275 9.12273 9.12153 8.8035 8.84968C8.48425 8.57783 7.97347 8.44188 7.26202 8.44188H5.62935V4.5H10.272V5.29742H6.85157V7.59008H7.4718C8.3839 7.59008 9.1136 7.7985 9.66998 8.21535C10.2264 8.63217 10.5 9.3209 10.5 10.2724Z" fill="#222222"/>
<path d="M5.61335 18.3844C5.07627 19.0401 4.94895 19.9549 5.53805 20.554C6.17478 21.2016 7.14382 21.0139 7.73177 20.416C8.31972 21.0139 9.28875 21.2016 9.92548 20.554C10.5146 19.9549 10.3873 19.0401 9.85017 18.3844C9.2702 17.6764 8.47617 17.0681 7.73177 16.5406C6.98735 17.0681 6.19332 17.6764 5.61335 18.3844Z" fill="#2C2C2C"/>
<path d="M21.7822 40.594C19.7165 43.1158 19.2267 46.6345 21.4926 48.9388C23.9415 51.4295 27.6685 50.7077 29.93 48.4077C32.1913 50.7075 35.9182 51.4295 38.3672 48.9388C40.633 46.6345 40.1433 43.1158 38.0778 40.594C35.847 37.871 32.793 35.5313 29.93 33.5023C27.0668 35.5313 24.0128 37.871 21.7822 40.594Z" fill="#2C2C2C"/>
</g>
<defs>
<clipPath id="clip0_1_4347">
<rect width="60" height="84" fill="white"/>
</clipPath>
</defs>
</svg>
