<svg width="75" height="105" viewBox="0 0 75 105" fill="none" xmlns="http://www.w3.org/2000/svg">
<g clip-path="url(#clip0_1_4309)">
<path d="M71.5625 0H3.4375C1.53902 0 0 1.53902 0 3.4375V101.562C0 103.461 1.53902 105 3.4375 105H71.5625C73.461 105 75 103.461 75 101.562V3.4375C75 1.53902 73.461 0 71.5625 0Z" fill="white"/>
<path d="M71.5625 0H3.4375C1.53902 0 0 1.53902 0 3.4375V101.562C0 103.461 1.53902 105 3.4375 105H71.5625C73.461 105 75 103.461 75 101.562V3.4375C75 1.53902 73.461 0 71.5625 0Z" fill="white"/>
<path d="M68.75 96.0281C68.75 97.0863 68.4306 97.9144 67.7809 98.5009C67.1425 99.0875 66.3216 99.375 65.3181 99.375C64.3834 99.375 63.5853 99.0875 62.9012 98.5009C62.2172 97.9144 61.875 96.9369 61.875 95.5453V92.4053C61.875 91.0597 62.2056 90.0706 62.8556 89.415C63.5053 88.7709 64.3834 88.4375 65.4778 88.4375C66.7091 88.4375 67.7125 88.9206 68.4991 89.8981L67.245 90.5306C66.8575 89.8522 66.2759 89.5184 65.4894 89.5184C64.8394 89.5184 64.3263 89.7256 63.9616 90.1281C63.5966 90.5306 63.4028 91.2897 63.4028 92.3825V93.8659C63.9159 93.0841 64.7141 92.6928 65.7744 92.6928C66.6634 92.6928 67.3819 92.9803 67.9291 93.5441C68.4763 94.1075 68.75 94.9356 68.75 96.0281ZM67.2109 96.0397C67.2109 95.1656 67.0513 94.5675 66.7319 94.2572C66.4128 93.9466 66.0022 93.7856 65.4894 93.7856C64.3947 93.7856 63.6878 94.3375 63.3913 95.43C63.3913 96.6494 63.5738 97.4313 63.9388 97.7763C64.3034 98.1213 64.7597 98.2938 65.3069 98.2938C65.8312 98.2938 66.2759 98.1213 66.6522 97.7763C67.0284 97.4313 67.2109 96.8447 67.2109 96.0397Z" fill="#222222"/>
<path d="M65.3213 78.8475L67.6688 81.5822L65.3213 84.325L62.9738 81.5822L65.3213 78.8475Z" fill="#F24E1E"/>
<path d="M6.25 8.97181C6.25 7.91372 6.56922 7.08563 7.21909 6.49906C7.85756 5.9125 8.67847 5.625 9.68178 5.625C10.6167 5.625 11.4148 5.9125 12.0989 6.49906C12.7829 7.08563 13.125 8.06322 13.125 9.45484V12.5947C13.125 13.9403 12.7944 14.9294 12.1445 15.5849C11.4946 16.229 10.6167 16.5625 9.52219 16.5625C8.29084 16.5625 7.28753 16.0795 6.50084 15.1019L7.75497 14.4693C8.14263 15.1479 8.72409 15.4814 9.51078 15.4814C10.1607 15.4814 10.6737 15.2744 11.0386 14.8718C11.4034 14.4693 11.5972 13.7102 11.5972 12.6176V11.134C11.0842 11.9161 10.2861 12.3071 9.22575 12.3071C8.33644 12.3071 7.61816 12.0196 7.07091 11.4561C6.52362 10.8925 6.25 10.0644 6.25 8.97181ZM7.78916 8.96031C7.78916 9.83437 7.94878 10.4324 8.26803 10.743C8.58725 11.0535 8.99772 11.2145 9.51078 11.2145C10.6053 11.2145 11.3122 10.6625 11.6086 9.56988C11.6086 8.35075 11.4262 7.56866 11.0614 7.22363C10.6965 6.87859 10.2404 6.70609 9.69319 6.70609C9.16872 6.70609 8.72409 6.87859 8.34784 7.22363C7.97159 7.56866 7.78916 8.15522 7.78916 8.96031Z" fill="#222222"/>
<path d="M9.67874 26.1525L7.33124 23.4177L9.67874 20.675L12.0262 23.4177L9.67874 26.1525Z" fill="#F24E1E"/>
<path d="M37.4662 62.9422L28.4375 52.4237L37.4662 41.875L46.495 52.4237L37.4662 62.9422Z" fill="#F24E1E"/>
</g>
<defs>
<clipPath id="clip0_1_4309">
<rect width="75" height="105" fill="white"/>
</clipPath>
</defs>
</svg>
