<?xml version="1.0" encoding="iso-8859-1"?>
<!-- Uploaded to: SVG Repo, www.svgrepo.com, Generator: SVG Repo Mixer Tools -->
<svg height="800px" width="800px" version="1.1" id="Layer_1" xmlns="http://www.w3.org/2000/svg" xmlns:xlink="http://www.w3.org/1999/xlink" 
	 viewBox="0 0 512.002 512.002" xml:space="preserve">
<circle style="fill:#FF6464;" cx="291.302" cy="291.268" r="220.7"/>
<circle style="fill:#FFFFFF;" cx="291.302" cy="291.268" r="176.56"/>
<circle style="fill:#FF6464;" cx="291.302" cy="291.268" r="132.42"/>
<circle style="fill:#FFFFFF;" cx="291.302" cy="291.268" r="88.28"/>
<circle style="fill:#FF6464;" cx="291.302" cy="291.268" r="44.14"/>
<path style="fill:#AFB9D2;" d="M297.542,285.022l-50.381-50.381l-12.484,12.484l50.381,50.381c1.725,1.725,3.983,2.587,6.241,2.587
	s4.518-0.862,6.241-2.587C300.991,294.057,300.991,288.47,297.542,285.022z"/>
<path style="fill:#C7CFE2;" d="M239.091,264.021l-13.242-13.242l24.967-24.967l13.242,13.242c3.447,3.447,3.447,9.038,0,12.485
	l-12.482,12.482C248.129,267.468,242.54,267.468,239.091,264.021z"/>
<path style="fill:#FF6464;" d="M88.257,88.221H51.324c-4.682,0-9.173-1.86-12.485-5.171L1.863,46.072
	c-3.978-3.978-1.165-10.779,4.46-10.786l28.966-0.035V6.365c0-5.629,6.805-8.447,10.786-4.468L82.997,38.82
	c3.301,3.301,5.16,7.774,5.171,12.442L88.257,88.221z"/>
<path style="fill:#D2555A;" d="M23.875,11.354c-3.448-3.448-9.034-3.448-12.483,0s-3.448,9.034,0,12.483L86.43,98.875l12.483-12.483
	L23.875,11.354z"/>
<polygon style="fill:#FFD782;" points="98.913,86.392 86.43,98.876 225.849,250.779 250.816,225.812 "/>
</svg>