<svg width="175" height="175" viewBox="0 0 175 175" fill="none" xmlns="http://www.w3.org/2000/svg">
<path d="M144.828 25.6464L175 61.8536H128.049L144.828 25.6464Z" fill="#ECF8FD"/>
<path d="M87.5 25.6464L128.049 61.8536L144.828 25.6464H87.5Z" fill="#CBEDF9"/>
<path d="M175 61.8536L87.5 149.354L128.049 61.8536H175Z" fill="#AAE2F5"/>
<path d="M30.1725 25.6464L0 61.8536H46.9513L30.1725 25.6464Z" fill="#7DD2F0"/>
<path d="M87.5 25.6464L46.9513 61.8536L30.1725 25.6464H87.5Z" fill="#64B9DC"/>
<path d="M87.5 25.6464L46.9513 61.8536H128.049L87.5 25.6464Z" fill="#AAE2F5"/>
<path d="M46.9513 61.8536L87.5 149.354L128.049 61.8536H46.9513Z" fill="#7DD2F0"/>
<path d="M0 61.8536L87.5 149.354L46.9513 61.8536H0Z" fill="#64B9DC"/>
<path d="M148.666 43.9315C142.753 42.5831 138.098 37.9282 136.75 32.0147C136.649 31.5694 136.059 31.5694 135.958 32.0147C134.61 37.9282 129.954 42.5831 124.041 43.9315C123.596 44.033 123.596 44.6226 124.041 44.7241C129.955 46.0722 134.61 50.7268 135.958 56.6402C136.059 57.0855 136.649 57.0855 136.75 56.6402C138.098 50.7268 142.753 46.0718 148.666 44.7241C149.111 44.6223 149.111 44.033 148.666 43.9315Z" fill="white"/>
<path d="M134.846 65.6674C130.205 64.4649 126.55 60.8108 125.348 56.1692C125.228 55.703 124.624 55.703 124.503 56.1692C123.301 60.8108 119.647 64.4656 115.005 65.6674C114.539 65.788 114.539 66.3916 115.005 66.5123C119.647 67.7144 123.302 71.3689 124.503 76.0105C124.624 76.4767 125.228 76.4767 125.348 76.0105C126.55 71.3685 130.205 67.714 134.846 66.5123C135.313 66.3913 135.313 65.788 134.846 65.6674Z" fill="white"/>
</svg>
