<svg width="50" height="50" viewBox="0 0 50 50" fill="none" xmlns="http://www.w3.org/2000/svg">
<path d="M0 25C0 25.663 0.329241 26.2989 0.915292 26.7678C1.50134 27.2366 2.2962 27.5 3.125 27.5H26.8438L19.6562 33.225C19.3633 33.4574 19.1309 33.7339 18.9722 34.0386C18.8136 34.3432 18.7319 34.67 18.7319 35C18.7319 35.33 18.8136 35.6568 18.9722 35.9614C19.1309 36.2661 19.3633 36.5426 19.6562 36.775C19.9468 37.0093 20.2924 37.1953 20.6732 37.3222C21.054 37.4492 21.4625 37.5145 21.875 37.5145C22.2875 37.5145 22.696 37.4492 23.0768 37.3222C23.4576 37.1953 23.8032 37.0093 24.0938 36.775L36.5938 26.775C36.8783 26.5372 37.1013 26.2569 37.25 25.95C37.5626 25.3413 37.5626 24.6587 37.25 24.05C37.1013 23.7431 36.8783 23.4628 36.5938 23.225L24.0938 13.225C23.8024 12.9919 23.4565 12.807 23.0758 12.6809C22.6951 12.5547 22.2871 12.4898 21.875 12.4898C21.4629 12.4898 21.0549 12.5547 20.6742 12.6809C20.2935 12.807 19.9476 12.9919 19.6562 13.225C19.3649 13.4581 19.1338 13.7348 18.9761 14.0394C18.8184 14.3439 18.7372 14.6704 18.7372 15C18.7372 15.3296 18.8184 15.6561 18.9761 15.9606C19.1338 16.2652 19.3649 16.5419 19.6562 16.775L26.8438 22.5H3.125C2.2962 22.5 1.50134 22.7634 0.915292 23.2322C0.329241 23.7011 0 24.337 0 25V25ZM40.625 0H9.375C6.8886 0 4.50403 0.790177 2.74587 2.1967C0.987721 3.60322 0 5.51088 0 7.5V15C0 15.663 0.329241 16.2989 0.915292 16.7678C1.50134 17.2366 2.2962 17.5 3.125 17.5C3.9538 17.5 4.74866 17.2366 5.33471 16.7678C5.92076 16.2989 6.25 15.663 6.25 15V7.5C6.25 6.83696 6.57924 6.20107 7.16529 5.73223C7.75134 5.26339 8.5462 5 9.375 5H40.625C41.4538 5 42.2487 5.26339 42.8347 5.73223C43.4208 6.20107 43.75 6.83696 43.75 7.5V42.5C43.75 43.163 43.4208 43.7989 42.8347 44.2678C42.2487 44.7366 41.4538 45 40.625 45H9.375C8.5462 45 7.75134 44.7366 7.16529 44.2678C6.57924 43.7989 6.25 43.163 6.25 42.5V35C6.25 34.337 5.92076 33.7011 5.33471 33.2322C4.74866 32.7634 3.9538 32.5 3.125 32.5C2.2962 32.5 1.50134 32.7634 0.915292 33.2322C0.329241 33.7011 0 34.337 0 35V42.5C0 44.4891 0.987721 46.3968 2.74587 47.8033C4.50403 49.2098 6.8886 50 9.375 50H40.625C43.1114 50 45.496 49.2098 47.2541 47.8033C49.0123 46.3968 50 44.4891 50 42.5V7.5C50 5.51088 49.0123 3.60322 47.2541 2.1967C45.496 0.790177 43.1114 0 40.625 0Z" fill="#8D92C7"/>
</svg>
