<svg width="200" height="200" viewBox="0 0 200 200" fill="none" xmlns="http://www.w3.org/2000/svg">
<g clip-path="url(#clip0_113_196)">
<path d="M137.092 145.943C137.63 147.951 136.439 150.02 134.431 150.557L39.8336 175.906C37.8256 176.443 35.7625 175.247 35.2254 173.239L0.128983 42.2629C-0.408093 40.2545 0.782152 38.1914 2.79013 37.6544L97.3852 12.3058C99.3931 11.7688 101.463 12.959 102 14.967L137.092 145.943Z" fill="#AAB2BC"/>
<path d="M34.3037 49.3978C33.7483 47.3222 31.6121 46.0893 29.5369 46.6451L25.7707 47.6525L24.7638 43.8863C24.2083 41.8111 22.0721 40.5782 19.9907 41.1337C17.9154 41.6891 16.6826 43.8253 17.238 45.9068L18.2454 49.6663L14.4792 50.6799C12.404 51.2353 11.1711 53.3715 11.7266 55.4467C12.282 57.5278 14.4182 58.761 16.4997 58.2056L20.2596 57.1924L21.2728 60.9582C21.8282 63.0334 23.9644 64.2725 26.0396 63.7108C28.1211 63.1554 29.3539 61.0188 28.7985 58.944L27.7916 55.1778L31.5515 54.1709C33.6259 53.6154 34.865 51.4792 34.3037 49.3978Z" fill="#434A54"/>
<path d="M138.844 159.597C138.844 161.678 137.159 163.363 135.078 163.363H37.1478C35.0663 163.363 33.382 161.678 33.382 159.597V24.0003C33.382 21.9251 35.0667 20.2346 37.1478 20.2346H135.078C137.159 20.2346 138.844 21.9251 138.844 24.0003V159.597Z" fill="#CCD1D9"/>
<path d="M65.6703 37.5446C63.4364 31.4104 56.3746 28.8771 54.9768 28.4318L53.7928 28.0535L52.6026 28.4318C51.2111 28.8775 44.1493 31.4104 41.915 37.5508C40.0474 42.519 41.8662 47.8416 46.2488 50.2159L46.4075 50.3011C47.2866 50.7283 48.2509 50.9421 49.2883 50.9421C51.0281 50.9421 52.6393 50.3195 53.7682 49.8129C54.9096 50.3257 56.5271 50.948 58.2728 50.948C59.3164 50.948 60.2929 50.7283 61.1782 50.3011L61.3369 50.2159C65.7192 47.8413 67.5379 42.519 65.6703 37.5446Z" fill="#434A54"/>
<path d="M57.6868 51.4061V48.5249H49.8985V51.4061C47.7439 51.4061 45.9982 53.1456 45.9982 55.3001C45.9982 57.4484 47.7439 59.1941 49.8985 59.1941H57.6868C59.8414 59.1941 61.5808 57.4484 61.5808 55.3001C61.5808 53.1456 59.8414 51.4061 57.6868 51.4061Z" fill="#434A54"/>
<path d="M137.007 173.238C136.464 175.247 134.4 176.443 132.392 175.906L37.801 150.557C35.7867 150.02 34.5965 147.951 35.1336 145.943L70.2296 14.967C70.7667 12.959 72.8356 11.7688 74.844 12.3058L169.436 37.6544C171.443 38.1914 172.64 40.2545 172.097 42.2629L137.007 173.238Z" fill="#D7DADD"/>
<path d="M88.8643 24.1285L72.6836 35.927L80.7952 54.2322L96.9759 42.4337L88.8643 24.1285Z" fill="#ED5564"/>
<path d="M131.697 185.94C130.653 187.741 128.352 188.357 126.551 187.319L41.7438 138.356C39.9372 137.312 39.3207 135.011 40.3644 133.211L108.161 15.7789C109.198 13.9784 111.506 13.3616 113.306 14.3994L198.117 63.3691C199.917 64.4069 200.534 66.7143 199.497 68.5148L131.697 185.94Z" fill="#E6E9ED"/>
<path d="M112.36 49.3184L113.581 49.5807C114.057 49.6843 115.766 50.0204 117.975 50.0204C121.809 50.0204 125.068 48.9889 127.399 47.0298C131.501 43.6603 132.588 38.143 129.981 33.8945L129.883 33.7416C128.156 31.1903 125.19 30.6837 123.261 30.4824C122.15 28.9505 120.16 26.5822 117.091 26.3562L116.913 26.3441C116.828 26.3441 116.736 26.3441 116.651 26.3441C111.725 26.3441 107.685 29.9633 106.824 35.1578C105.697 41.5847 110.541 47.31 111.524 48.3967L112.36 49.3184Z" fill="#ED5564"/>
<path d="M133.595 156.93L133.497 156.777C131.764 154.226 128.803 153.719 126.875 153.517C125.764 151.986 123.774 149.611 120.698 149.391L120.521 149.379C120.435 149.379 120.35 149.379 120.264 149.379C115.333 149.379 111.298 152.999 110.437 158.193C109.302 164.62 114.155 170.345 115.137 171.432L115.974 172.353L117.194 172.616C117.664 172.72 119.38 173.055 121.589 173.055C125.422 173.055 128.675 172.024 131.007 170.064C135.109 166.695 136.201 161.171 133.595 156.93Z" fill="#ED5564"/>
<path d="M139.521 92.3556L139.43 92.2028C136.848 88.3999 131.263 87.3746 127.852 87.1061C127.387 86.4287 126.789 85.6352 126.105 84.817C123.365 81.5946 120.527 79.8489 117.676 79.6413L117.5 79.6351C117.365 79.6288 117.231 79.6288 117.097 79.6288C109.455 79.6288 103.184 85.3357 101.835 93.5025C99.906 104.385 108.899 114.655 109.931 115.797L110.773 116.718L111.988 116.981C112.568 117.108 115.662 117.737 119.623 117.737C126.105 117.737 131.544 116.047 135.347 112.848C138.57 110.212 140.663 106.818 141.414 103.055C142.153 99.3443 141.481 95.5418 139.521 92.3556Z" fill="#ED5564"/>
</g>
<defs>
<clipPath id="clip0_113_196">
<rect width="200" height="200" fill="white"/>
</clipPath>
</defs>
</svg>
