<?xml version="1.0" encoding="iso-8859-1"?>
<!-- Generator: Adobe Illustrator 19.0.0, SVG Export Plug-In . SVG Version: 6.00 Build 0)  -->
<svg version="1.1" id="Layer_1" xmlns="http://www.w3.org/2000/svg" xmlns:xlink="http://www.w3.org/1999/xlink" x="0px" y="0px"
	 viewBox="0 0 512.001 512.001" style="enable-background:new 0 0 512.001 512.001;" xml:space="preserve">
<g>
	<polygon style="fill:#959CB3;" points="335.232,505.122 318.008,501.224 423.939,33.362 441.163,37.26 	"/>
	<polygon style="fill:#959CB3;" points="176.766,505.122 70.835,37.26 88.06,33.362 193.991,501.224 	"/>
</g>
<g>
	<polygon style="fill:#707384;" points="370.735,268.346 389.369,266.017 441.163,37.26 423.939,33.362 	"/>
	<polygon style="fill:#707384;" points="88.06,33.362 70.835,37.26 122.63,266.017 141.263,268.346 	"/>
</g>
<path style="fill:#FF6464;" d="M499.985,157.24l-28.074,63.166c-2.514,5.655-7.804,9.581-13.943,10.348l-186.639,23.33
	c-10.179,1.272-20.478,1.272-30.658,0L54.031,230.755c-6.141-0.768-11.431-4.694-13.943-10.348l-28.074-63.166
	c-2.029-4.565-2.029-9.775,0-14.34l28.074-63.168c2.514-5.655,7.804-9.581,13.943-10.348l186.639-23.33
	c10.179-1.272,20.478-1.272,30.658,0l186.639,23.33c6.141,0.768,11.431,4.694,13.943,10.348l28.074,63.166
	C502.013,147.464,502.013,152.675,499.985,157.24z"/>
<path style="fill:#D2555A;" d="M255.621,75.035c-7.633,0-14.471,4.252-17.847,11.095l-13.03,26.401l-29.135,4.234
	c-7.552,1.097-13.708,6.287-16.066,13.545s-0.429,15.075,5.035,20.402l21.084,20.551l-4.977,29.018
	c-0.995,5.799,0.598,11.692,4.373,16.17c3.81,4.52,9.365,7.112,15.241,7.112c3.197,0,6.4-0.796,9.263-2.301l26.06-13.7l26.06,13.7
	c2.863,1.505,6.067,2.301,9.263,2.301c5.875,0,11.43-2.592,15.24-7.112c3.775-4.477,5.369-10.37,4.374-16.17l-4.977-29.018
	l21.082-20.551c5.465-5.327,7.394-13.145,5.036-20.403c-2.358-7.257-8.514-12.448-16.066-13.545L286.5,112.53l-13.033-26.401
	C270.09,79.287,263.251,75.035,255.621,75.035L255.621,75.035z"/>
<g>
	<path style="fill:#FFD782;" d="M255.999,263.867c-5.492,0-10.974-0.341-16.423-1.026L52.938,239.514
		c-9.146-1.142-17.164-7.086-20.922-15.518L3.947,160.828c-3.043-6.836-3.043-14.681,0.009-21.522l28.061-63.159
		c3.758-8.436,11.776-14.379,20.922-15.521l186.638-23.328c10.897-1.37,21.949-1.37,32.845,0l186.638,23.328
		c9.146,1.142,17.164,7.086,20.922,15.517l28.069,63.168c3.043,6.836,3.043,14.681-0.009,21.522l-28.061,63.159
		c-3.758,8.436-11.776,14.379-20.922,15.521l-186.638,23.328C266.973,263.526,261.49,263.867,255.999,263.867z M255.999,53.927
		c-4.759,0-9.508,0.298-14.232,0.888L55.129,78.142c-3.052,0.384-5.725,2.367-6.974,5.181l-28.07,63.16
		c-1.017,2.28-1.017,4.893-0.009,7.168l28.077,63.168c1.25,2.81,3.923,4.793,6.974,5.176l186.638,23.328
		c9.457,1.181,19.026,1.181,28.466,0l186.638-23.328c3.052-0.384,5.725-2.367,6.974-5.181l28.07-63.159c0,0,0-0.004,0.009-0.004
		c1.009-2.276,1.009-4.888,0-7.164L463.845,83.32c-1.25-2.81-3.923-4.793-6.974-5.176L270.232,54.816
		C265.508,54.225,260.75,53.927,255.999,53.927z"/>
	<path style="fill:#FFD782;" d="M261.594,91.99l16.11,32.644l36.024,5.235c5.463,0.793,7.645,7.508,3.692,11.362l-26.068,25.41
		l6.154,35.88c0.934,5.441-4.778,9.591-9.665,7.022l-32.222-16.94l-32.222,16.94c-4.887,2.569-10.599-1.58-9.665-7.022l6.154-35.88
		l-26.068-25.41c-3.954-3.853-1.772-10.568,3.692-11.362l36.024-5.235l16.11-32.644C252.091,87.038,259.151,87.038,261.594,91.99z"
		/>
</g>
<path style="fill:#FFFFFF;" d="M220.288,214.732c-2.286,0-4.557-0.716-6.499-2.127c-3.436-2.496-5.124-6.646-4.406-10.831
	l5.762-33.592l-24.406-23.79c-3.041-2.964-4.115-7.314-2.803-11.353c1.312-4.039,4.738-6.926,8.941-7.538l33.728-4.902
	l15.083-30.562c1.879-3.808,5.685-6.174,9.931-6.174c4.247,0,8.052,2.366,9.931,6.174l0,0l15.084,30.563l33.728,4.902
	c4.202,0.61,7.628,3.498,8.94,7.538c1.312,4.039,0.238,8.39-2.803,11.353l-24.406,23.79l5.761,33.592
	c0.717,4.185-0.97,8.335-4.406,10.831c-3.436,2.496-7.905,2.819-11.663,0.843l-30.167-15.861l-30.168,15.861
	C223.818,214.308,222.048,214.732,220.288,214.732z M255.621,188.187c0.706,0,1.411,0.169,2.054,0.506l32.222,16.94
	c1.115,0.586,2.026,0.076,2.367-0.171c0.34-0.247,1.107-0.956,0.895-2.198l-6.154-35.88c-0.246-1.432,0.23-2.893,1.269-3.907
	l26.068-25.41c0.903-0.881,0.698-1.905,0.569-2.304c-0.13-0.399-0.566-1.348-1.814-1.529l-36.024-5.235
	c-1.438-0.209-2.68-1.112-3.324-2.414l-16.111-32.643l0,0c-0.558-1.13-1.596-1.252-2.016-1.252c-0.419,0-1.457,0.122-2.015,1.252
	l-16.11,32.643c-0.643,1.303-1.886,2.206-3.324,2.414l-36.024,5.235c-1.248,0.181-1.685,1.13-1.815,1.529
	c-0.129,0.399-0.334,1.423,0.569,2.304l26.068,25.41c1.041,1.014,1.515,2.475,1.269,3.907l-6.154,35.88
	c-0.213,1.242,0.554,1.951,0.895,2.198c0.34,0.247,1.25,0.758,2.367,0.171l32.222-16.94
	C254.209,188.357,254.916,188.187,255.621,188.187z"/>
<path style="fill:#D2555A;" d="M394.651,119.9c1.218,0,2.436,0.634,3.062,1.903l8.26,16.736l18.471,2.684
	c2.802,0.407,3.919,3.85,1.892,5.825l-13.365,13.028l3.155,18.394c0.378,2.207-1.376,4-3.366,4c-0.525,0-1.067-0.125-1.59-0.399
	l-16.52-8.685l-16.52,8.685c-0.523,0.276-1.065,0.399-1.59,0.399c-1.99,0-3.744-1.793-3.366-4l3.155-18.394l-13.365-13.028
	c-2.027-1.976-0.908-5.418,1.892-5.825l18.471-2.684l8.26-16.736C392.214,120.535,393.433,119.9,394.651,119.9 M394.651,106.659
	c-6.387,0-12.11,3.558-14.936,9.286l-5.18,10.494l-11.581,1.683c-6.322,0.919-11.474,5.263-13.447,11.338
	c-1.973,6.073-0.358,12.616,4.215,17.074l8.38,8.169l-1.978,11.534c-0.832,4.852,0.505,9.788,3.669,13.54
	c3.182,3.775,7.829,5.94,12.747,5.94c2.681,0,5.362-0.664,7.752-1.921l10.358-5.446l10.358,5.446c2.39,1.257,5.07,1.921,7.752,1.921
	c4.918,0,9.565-2.165,12.747-5.94c3.164-3.753,4.501-8.689,3.669-13.54l-1.978-11.533l8.38-8.169
	c4.573-4.457,6.188-10.999,4.215-17.074c-1.973-6.073-7.125-10.418-13.446-11.337l-11.583-1.683l-5.18-10.494
	C406.761,110.216,401.038,106.659,394.651,106.659L394.651,106.659z"/>
<path style="fill:#FFD782;" d="M397.713,121.804l8.26,16.737l18.47,2.684c2.802,0.407,3.919,3.85,1.892,5.825l-13.365,13.027
	l3.155,18.396c0.479,2.79-2.45,4.917-4.956,3.601l-16.52-8.685l-16.52,8.685c-2.506,1.318-5.433-0.81-4.956-3.601l3.155-18.396
	l-13.365-13.027c-2.027-1.976-0.908-5.418,1.892-5.825l18.47-2.684l8.26-16.737C392.841,119.266,396.46,119.266,397.713,121.804z"/>
<path style="fill:#FFFFFF;" d="M412.767,186.887c-1.244,0-2.495-0.3-3.651-0.908l-14.465-7.606l-14.466,7.606
	c-2.658,1.397-5.817,1.169-8.246-0.597c-2.429-1.764-3.622-4.698-3.114-7.657l2.762-16.108l-11.703-11.409
	c-2.15-2.095-2.909-5.171-1.981-8.025c0.928-2.855,3.35-4.897,6.321-5.329l16.173-2.35l7.233-14.656
	c1.329-2.691,4.019-4.364,7.02-4.364c3.001,0,5.692,1.672,7.02,4.364l7.233,14.656l16.173,2.35c2.97,0.431,5.393,2.473,6.321,5.329
	c0.928,2.855,0.169,5.93-1.981,8.025l-11.703,11.409l2.763,16.108c0.508,2.959-0.686,5.894-3.115,7.657
	C415.989,186.381,414.384,186.887,412.767,186.887z M367.495,145.302l11.915,11.615c1.041,1.014,1.515,2.475,1.269,3.907
	l-2.813,16.401l14.729-7.744c1.286-0.675,2.823-0.675,4.108,0l14.729,7.744l-2.813-16.401c-0.246-1.432,0.23-2.893,1.269-3.907
	l11.916-11.615l-16.467-2.392c-1.438-0.209-2.68-1.112-3.324-2.414l-7.364-14.923l-7.364,14.923
	c-0.643,1.302-1.886,2.206-3.324,2.414L367.495,145.302z M423.809,145.593h0.011H423.809z M393.755,123.757
	c0,0.001,0.001,0.003,0.002,0.004L393.755,123.757L393.755,123.757z"/>
<path style="fill:#D2555A;" d="M117.348,119.9c1.218,0,2.436,0.634,3.062,1.903l8.26,16.736l18.471,2.684
	c2.802,0.407,3.919,3.85,1.892,5.825l-13.365,13.03l3.155,18.394c0.378,2.207-1.376,4-3.366,4c-0.525,0-1.067-0.125-1.59-0.399
	l-16.52-8.685l-16.52,8.685c-0.523,0.276-1.065,0.399-1.59,0.399c-1.99,0-3.744-1.793-3.366-4l3.155-18.394L85.662,147.05
	c-2.027-1.976-0.908-5.418,1.892-5.825l18.471-2.684l8.26-16.736C114.911,120.535,116.129,119.9,117.348,119.9 M117.348,106.659
	c-6.387,0-12.11,3.558-14.936,9.286l-5.18,10.494l-11.581,1.683c-6.322,0.919-11.474,5.265-13.447,11.338
	c-1.973,6.074-0.358,12.617,4.216,17.074l8.38,8.169l-1.978,11.534c-0.832,4.852,0.505,9.788,3.669,13.54
	c3.182,3.775,7.829,5.94,12.747,5.94c2.681,0,5.362-0.664,7.752-1.921l10.358-5.446l10.358,5.446c2.39,1.257,5.07,1.921,7.752,1.921
	c4.919,0,9.565-2.165,12.747-5.94c3.164-3.753,4.501-8.689,3.669-13.54l-1.978-11.533l8.38-8.169
	c4.573-4.458,6.188-10.999,4.215-17.074c-1.973-6.074-7.125-10.419-13.446-11.337l-11.583-1.683l-5.18-10.494
	C129.458,110.216,123.734,106.659,117.348,106.659L117.348,106.659z"/>
<path style="fill:#FFD782;" d="M120.41,121.804l8.26,16.737l18.47,2.684c2.802,0.407,3.919,3.85,1.892,5.825l-13.364,13.028
	l3.155,18.396c0.479,2.79-2.45,4.917-4.956,3.601l-16.52-8.685l-16.52,8.685c-2.506,1.318-5.433-0.81-4.956-3.601l3.155-18.396
	l-13.365-13.027c-2.027-1.976-0.908-5.418,1.892-5.825l18.47-2.684l8.26-16.737C115.538,119.266,119.157,119.266,120.41,121.804z"/>
<path style="fill:#FFFFFF;" d="M99.231,186.887c-1.617,0-3.222-0.506-4.595-1.504c-2.429-1.764-3.623-4.698-3.115-7.657
	l2.763-16.108L82.581,150.21c-2.15-2.095-2.909-5.171-1.981-8.025c0.928-2.855,3.35-4.897,6.321-5.329l16.173-2.35l7.233-14.656
	c1.329-2.691,4.019-4.364,7.02-4.364s5.692,1.672,7.02,4.364l0,0l7.233,14.656l16.174,2.35c2.97,0.431,5.393,2.473,6.321,5.329
	c0.928,2.855,0.169,5.93-1.981,8.025l-11.703,11.409l2.763,16.108c0.508,2.959-0.686,5.894-3.115,7.657
	c-2.429,1.764-5.587,1.993-8.245,0.596l-14.465-7.606l-14.466,7.606C101.725,186.587,100.475,186.887,99.231,186.887z
	 M90.192,145.302l11.916,11.615c1.041,1.014,1.515,2.475,1.269,3.907l-2.813,16.401l14.73-7.744c1.287-0.676,2.823-0.675,4.108,0
	l14.729,7.744l-2.813-16.401c-0.246-1.432,0.23-2.893,1.269-3.907l11.916-11.615l-16.468-2.392c-1.438-0.209-2.68-1.112-3.324-2.414
	l-7.364-14.922l-7.364,14.923c-0.643,1.302-1.886,2.206-3.324,2.414L90.192,145.302z M116.453,123.757
	c0,0.001,0.001,0.002,0.001,0.003L116.453,123.757z"/>
<path style="fill:#707384;" d="M353.103,512.001H158.896c-4.875,0-8.828-3.953-8.828-8.828s3.953-8.828,8.828-8.828h194.207
	c4.875,0,8.828,3.953,8.828,8.828S357.978,512.001,353.103,512.001z"/>
<path style="fill:#FFD782;" d="M459.07,42.012c-0.365,0-0.734-0.023-1.106-0.07L271.327,18.616c-10.174-1.279-20.482-1.28-30.648,0
	L54.034,41.944c-4.834,0.601-9.249-2.828-9.854-7.665c-0.605-4.838,2.827-9.249,7.665-9.854L238.482,1.096
	c11.622-1.462,23.413-1.462,35.041,0.001l186.631,23.327c4.837,0.605,8.269,5.016,7.665,9.854
	C467.261,38.745,463.457,42.012,459.07,42.012z"/>
<g>
</g>
<g>
</g>
<g>
</g>
<g>
</g>
<g>
</g>
<g>
</g>
<g>
</g>
<g>
</g>
<g>
</g>
<g>
</g>
<g>
</g>
<g>
</g>
<g>
</g>
<g>
</g>
<g>
</g>
</svg>
