<svg width="50" height="48" viewBox="0 0 50 48" fill="none" xmlns="http://www.w3.org/2000/svg">
<path d="M49.1219 18.6539L42.8657 13.5551V5.40062C42.8657 4.48235 42.1185 3.73517 41.2003 3.73517H37.2637C36.3455 3.73517 35.5983 4.48235 35.5983 5.40062V7.63186L27.2388 0.818824C26.6341 0.326155 25.8371 0.0546875 24.9947 0.0546875C24.1556 0.0546875 23.3624 0.32449 22.761 0.814585L0.878154 18.6538C-0.116117 19.4639 -0.0564641 20.1696 0.0675359 20.5182C0.191233 20.8659 0.589577 21.4494 1.86682 21.4494H4.86326V44.9091C4.86326 46.5833 6.22166 47.9452 7.89134 47.9452H17.3541C19.0097 47.9452 20.3065 46.6115 20.3065 44.9091V35.2887C20.3065 34.4641 21.0643 33.7133 21.8962 33.7133H28.2552C29.0483 33.7133 29.6935 34.4201 29.6935 35.2887V44.9091C29.6935 46.5548 31.1149 47.9452 32.7973 47.9452H42.1087C43.7784 47.9452 45.1368 46.5831 45.1368 44.9091V21.4494H48.1332C49.4104 21.4494 49.8086 20.8659 49.9325 20.5182C50.0565 20.1696 50.1161 19.4639 49.1219 18.6539Z" fill="#8D92C7"/>
</svg>
