<svg width="125" height="125" viewBox="0 0 125 125" fill="none" xmlns="http://www.w3.org/2000/svg">
<g clip-path="url(#clip0_110_1805)">
<path d="M114.224 43.1035H109.914V86.207H114.224V43.1035Z" fill="#AFB9D2"/>
<path d="M112.069 46.3362C114.449 46.3362 116.379 44.4064 116.379 42.0259C116.379 39.6454 114.449 37.7156 112.069 37.7156C109.688 37.7156 107.759 39.6454 107.759 42.0259C107.759 44.4064 109.688 46.3362 112.069 46.3362Z" fill="#FF6464"/>
<path d="M110.345 42.0259C110.345 40.0989 111.618 38.4868 113.362 37.9348C112.951 37.8049 112.523 37.7156 112.069 37.7156C109.688 37.7156 107.759 39.6453 107.759 42.0259C107.759 44.4062 109.688 46.3362 112.069 46.3362C112.522 46.3362 112.951 46.2468 113.362 46.1169C111.618 45.5649 110.345 43.9526 110.345 42.0259Z" fill="#D2555A"/>
<path d="M114.224 90.5173H96.9827V77.5862H114.224C115.414 77.5862 116.379 78.5513 116.379 79.7415V88.3621C116.379 89.5522 115.414 90.5173 114.224 90.5173Z" fill="#959CB3"/>
<path d="M15.0862 101.293L10.7759 120.69H105.604L101.293 101.293H15.0862Z" fill="#707487"/>
<path d="M15.0862 101.293L13.6492 107.759H102.73L101.293 101.293H15.0862Z" fill="#5B5D6E"/>
<path d="M103.448 103.448H12.9312C11.741 103.448 10.7759 102.483 10.7759 101.293V79.7412H105.604V101.293C105.604 102.483 104.638 103.448 103.448 103.448Z" fill="#959CB3"/>
<path d="M10.7759 92.6724H105.604C106.794 92.6724 107.759 91.7073 107.759 90.5171V77.5859C107.759 76.3958 106.794 75.4307 105.604 75.4307H10.7759C9.58569 75.4307 8.62061 76.3958 8.62061 77.5859V90.5171C8.62061 91.7075 9.58569 92.6724 10.7759 92.6724Z" fill="#AFB9D2"/>
<path d="M101.293 34.4827H15.0862V12.9312C15.0862 10.5505 17.0159 8.62085 19.3965 8.62085H96.9827C99.3633 8.62085 101.293 10.5505 101.293 12.9312V34.4827H101.293Z" fill="#AFB9D2"/>
<path d="M103.448 75.4312H12.9312V32.3276C12.9312 31.1375 13.8962 30.1724 15.0864 30.1724H101.293C102.483 30.1724 103.448 31.1375 103.448 32.3276V75.4312H103.448Z" fill="#C7CFE2"/>
<path d="M96.9827 64.6553H19.3965C18.2063 64.6553 17.2412 63.6902 17.2412 62.5V36.6379C17.2412 35.4478 18.2063 34.4827 19.3965 34.4827H96.9827C98.1729 34.4827 99.1379 35.4478 99.1379 36.6379V62.5C99.1379 63.6902 98.1729 64.6553 96.9827 64.6553Z" fill="#AFB9D2"/>
<path d="M41.282 60.3447H23.373C22.3672 60.3447 21.5518 59.5293 21.5518 58.5234V40.6145C21.5518 39.6086 22.3672 38.7932 23.373 38.7932H41.282C42.2878 38.7932 43.1033 39.6086 43.1033 40.6145V58.5234C43.1035 59.5293 42.2881 60.3447 41.282 60.3447Z" fill="#EFF2FA"/>
<path d="M28.5615 47.2541H33.1914C29.2852 49.0869 29.7192 56.5137 29.7192 56.5137H35.5063C35.5063 48.7734 40.1362 44.9392 40.1362 44.9392L38.979 42.6243H26.2415C25.6052 42.6243 25.0896 43.1399 25.0896 43.7761V49.5688H27.3992C28.0415 49.5688 28.5623 49.0481 28.5623 48.4058V47.2539H28.5615V47.2541Z" fill="#FF6464"/>
<path d="M21.5518 47.4138V51.7241C22.7419 51.7241 23.707 50.759 23.707 49.5688C23.707 48.3787 22.7419 47.4138 21.5518 47.4138Z" fill="#FF6464"/>
<path d="M43.1035 51.7241V47.4138C41.9133 47.4138 40.9482 48.3789 40.9482 49.5691C40.9482 50.7593 41.9133 51.7241 43.1035 51.7241Z" fill="#FF6464"/>
<path d="M67.144 60.3447H49.2351C48.2292 60.3447 47.4138 59.5293 47.4138 58.5234V40.6145C47.4138 39.6086 48.2292 38.7932 49.2351 38.7932H67.144C68.1499 38.7932 68.9653 39.6086 68.9653 40.6145V58.5234C68.9656 59.5293 68.1501 60.3447 67.144 60.3447Z" fill="#EFF2FA"/>
<path d="M54.4236 47.2541H59.0535C55.1472 49.0869 55.5813 56.5137 55.5813 56.5137H61.3684C61.3684 48.7734 65.9983 44.9392 65.9983 44.9392L64.8411 42.6243H52.1038C51.4675 42.6243 50.9519 43.1399 50.9519 43.7761V49.5688H53.2615C53.9038 49.5688 54.4246 49.0481 54.4246 48.4058V47.2539H54.4236V47.2541Z" fill="#FF6464"/>
<path d="M47.4138 47.4138V51.7241C48.604 51.7241 49.5691 50.759 49.5691 49.5688C49.5691 48.3787 48.604 47.4138 47.4138 47.4138Z" fill="#FF6464"/>
<path d="M68.9656 51.7241V47.4138C67.7754 47.4138 66.8103 48.3789 66.8103 49.5691C66.8103 50.7593 67.7751 51.7241 68.9656 51.7241Z" fill="#FF6464"/>
<path d="M93.0061 60.3447H75.0972C74.0913 60.3447 73.2759 59.5293 73.2759 58.5234V40.6145C73.2759 39.6086 74.0913 38.7932 75.0972 38.7932H93.0061C94.012 38.7932 94.8274 39.6086 94.8274 40.6145V58.5234C94.8276 59.5293 94.0122 60.3447 93.0061 60.3447Z" fill="#EFF2FA"/>
<path d="M80.2856 47.2541H84.9155C81.0093 49.0869 81.4434 56.5137 81.4434 56.5137H87.2305C87.2305 48.7734 91.8604 44.9392 91.8604 44.9392L90.7031 42.6243H77.9658C77.3296 42.6243 76.814 43.1399 76.814 43.7761V49.5688H79.1235C79.7659 49.5688 80.2866 49.0481 80.2866 48.4058V47.2539H80.2856V47.2541Z" fill="#FF6464"/>
<path d="M73.2759 47.4138V51.7241C74.4661 51.7241 75.4312 50.759 75.4312 49.5688C75.4312 48.3787 74.4661 47.4138 73.2759 47.4138Z" fill="#FF6464"/>
<path d="M94.8276 51.7241V47.4138C93.6375 47.4138 92.6724 48.3789 92.6724 49.5691C92.6724 50.7593 93.6372 51.7241 94.8276 51.7241Z" fill="#FF6464"/>
<path d="M94.8276 12.9312H21.5518C20.3616 12.9312 19.3965 13.8962 19.3965 15.0864V23.707C19.3965 24.8972 20.3616 25.8623 21.5518 25.8623H94.8276C96.0178 25.8623 96.9829 24.8972 96.9829 23.707V15.0864C96.9827 13.896 96.0178 12.9312 94.8276 12.9312Z" fill="#FFE669"/>
<path d="M92.3523 68.9656C91.4558 68.9656 90.5808 69.4775 90.2974 70.3279C89.7273 72.0408 88.1113 73.2759 86.2068 73.2759C84.3025 73.2759 82.6863 72.0408 82.1162 70.3279C81.833 69.4773 80.9578 68.9656 80.0613 68.9656H75.4309C74.2407 68.9656 73.2756 69.9307 73.2756 71.1209V75.4312H94.8274V71.1206C94.8274 69.9304 93.8623 68.9653 92.6721 68.9653H92.3523V68.9656Z" fill="#959CB3"/>
<path d="M30.1724 75.4312H21.5518V73.2759C21.5518 72.0857 22.5168 71.1206 23.707 71.1206H28.0173C29.2075 71.1206 30.1726 72.0857 30.1726 73.2759V75.4312H30.1724Z" fill="#FFE669"/>
<path d="M43.1035 75.4312H34.4829V73.2759C34.4829 72.0857 35.448 71.1206 36.6382 71.1206H40.9485C42.1387 71.1206 43.1038 72.0857 43.1038 73.2759V75.4312H43.1035Z" fill="#FFE669"/>
<path d="M56.0344 75.4312H47.4138V73.2759C47.4138 72.0857 48.3789 71.1206 49.5691 71.1206H53.8794C55.0696 71.1206 56.0347 72.0857 56.0347 73.2759V75.4312H56.0344Z" fill="#FF6464"/>
<path d="M68.9656 75.4312H60.345V73.2759C60.345 72.0857 61.3101 71.1206 62.5002 71.1206H66.8105C68.0007 71.1206 68.9658 72.0857 68.9658 73.2759V75.4312H68.9656Z" fill="#FF6464"/>
<path d="M58.1897 8.62061C60.5702 8.62061 62.5 6.69082 62.5 4.3103C62.5 1.92979 60.5702 0 58.1897 0C55.8092 0 53.8794 1.92979 53.8794 4.3103C53.8794 6.69082 55.8092 8.62061 58.1897 8.62061Z" fill="#FF6464"/>
<path d="M57.1121 4.3103C57.1121 2.50244 58.2275 0.959473 59.8059 0.319824C59.3062 0.116943 58.7622 0 58.1897 0C55.8091 0 53.8794 1.92969 53.8794 4.3103C53.8794 6.69067 55.8091 8.62061 58.1897 8.62061C58.7622 8.62061 59.3064 8.50366 59.8062 8.30078C58.2275 7.66113 57.1121 6.11816 57.1121 4.3103Z" fill="#D2555A"/>
<path d="M64.6553 8.62061H51.7241V6.46533C51.7241 5.27515 52.6892 4.31006 53.8794 4.31006H62.5C63.6902 4.31006 64.6553 5.27515 64.6553 6.46533V8.62061Z" fill="#C7CFE2"/>
<path d="M77.5862 8.62061C79.9667 8.62061 81.8965 6.69082 81.8965 4.3103C81.8965 1.92979 79.9667 0 77.5862 0C75.2057 0 73.2759 1.92979 73.2759 4.3103C73.2759 6.69082 75.2057 8.62061 77.5862 8.62061Z" fill="#FF6464"/>
<path d="M76.5085 4.3103C76.5085 2.50244 77.624 0.959473 79.2024 0.319824C78.7026 0.116943 78.1587 0 77.5862 0C75.2056 0 73.2759 1.92969 73.2759 4.3103C73.2759 6.69067 75.2056 8.62061 77.5862 8.62061C78.1587 8.62061 78.7029 8.50366 79.2026 8.30078C77.6243 7.66113 76.5085 6.11816 76.5085 4.3103Z" fill="#D2555A"/>
<path d="M84.0518 8.62061H71.1206V6.46533C71.1206 5.27515 72.0857 4.31006 73.2759 4.31006H81.8965C83.0867 4.31006 84.0518 5.27515 84.0518 6.46533V8.62061Z" fill="#C7CFE2"/>
<path d="M38.7932 8.62061C41.1737 8.62061 43.1035 6.69082 43.1035 4.3103C43.1035 1.92979 41.1737 0 38.7932 0C36.4127 0 34.4829 1.92979 34.4829 4.3103C34.4829 6.69082 36.4127 8.62061 38.7932 8.62061Z" fill="#FF6464"/>
<path d="M37.7156 4.3103C37.7156 2.50244 38.8311 0.959473 40.4094 0.319824C39.9097 0.116943 39.3655 0 38.7932 0C36.4126 0 34.4829 1.92969 34.4829 4.3103C34.4829 6.69067 36.4126 8.62061 38.7932 8.62061C39.3657 8.62061 39.9099 8.50366 40.4097 8.30078C38.8311 7.66113 37.7156 6.11816 37.7156 4.3103Z" fill="#D2555A"/>
<path d="M45.2585 8.62061H32.3274V6.46533C32.3274 5.27515 33.2925 4.31006 34.4827 4.31006H43.1033C44.2935 4.31006 45.2585 5.27515 45.2585 6.46533V8.62061Z" fill="#C7CFE2"/>
<path d="M28.0173 21.5518C26.8271 21.5518 25.8621 20.5867 25.8621 19.3965C25.8621 18.2063 26.8271 17.2412 28.0173 17.2412C29.2075 17.2412 30.1726 18.2063 30.1726 19.3965C30.1724 20.5867 29.2075 21.5518 28.0173 21.5518Z" fill="#FF6464"/>
<path d="M40.9482 21.5518H34.4827C33.2925 21.5518 32.3274 20.5867 32.3274 19.3965C32.3274 18.2063 33.2925 17.2412 34.4827 17.2412H40.9482C42.1384 17.2412 43.1035 18.2063 43.1035 19.3965C43.1035 20.5867 42.1384 21.5518 40.9482 21.5518Z" fill="white"/>
<path d="M75.4312 21.5518C74.241 21.5518 73.2759 20.5867 73.2759 19.3965C73.2759 18.2063 74.241 17.2412 75.4312 17.2412C76.6213 17.2412 77.5864 18.2063 77.5864 19.3965C77.5862 20.5867 76.6213 21.5518 75.4312 21.5518Z" fill="#FF6464"/>
<path d="M88.3621 21.5518H81.8965C80.7063 21.5518 79.7412 20.5867 79.7412 19.3965C79.7412 18.2063 80.7063 17.2412 81.8965 17.2412H88.3621C89.5522 17.2412 90.5173 18.2063 90.5173 19.3965C90.5173 20.5867 89.5522 21.5518 88.3621 21.5518Z" fill="white"/>
<path d="M49.5688 21.5518C48.3787 21.5518 47.4136 20.5867 47.4136 19.3965C47.4136 18.2063 48.3787 17.2412 49.5688 17.2412C50.759 17.2412 51.7241 18.2063 51.7241 19.3965C51.7241 20.5867 50.7593 21.5518 49.5688 21.5518Z" fill="#FF6464"/>
<path d="M66.8103 21.5518H56.0344C54.8442 21.5518 53.8792 20.5867 53.8792 19.3965C53.8792 18.2063 54.8442 17.2412 56.0344 17.2412H66.8103C68.0005 17.2412 68.9656 18.2063 68.9656 19.3965C68.9656 20.5867 68.0005 21.5518 66.8103 21.5518Z" fill="white"/>
<path d="M75.4312 88.3621H92.6726C93.8628 88.3621 94.8279 87.397 94.8279 86.2068V81.8965C94.8279 80.7063 93.8628 79.7412 92.6726 79.7412H75.4312C74.241 79.7412 73.2759 80.7063 73.2759 81.8965V86.2068C73.2759 87.397 74.2407 88.3621 75.4312 88.3621Z" fill="#5B5D6E"/>
<path d="M68.8308 84.0518L61.0151 79.5383V81.8965H53.8794V86.2068H61.0151V88.5649L68.8308 84.0518Z" fill="#FFE669"/>
<path d="M47.4138 86.207C48.6041 86.207 49.5691 85.2421 49.5691 84.0518C49.5691 82.8614 48.6041 81.8965 47.4138 81.8965C46.2235 81.8965 45.2585 82.8614 45.2585 84.0518C45.2585 85.2421 46.2235 86.207 47.4138 86.207Z" fill="#EFF2FA"/>
<path d="M30.1724 86.207C31.3627 86.207 32.3276 85.2421 32.3276 84.0518C32.3276 82.8614 31.3627 81.8965 30.1724 81.8965C28.982 81.8965 28.0171 82.8614 28.0171 84.0518C28.0171 85.2421 28.982 86.207 30.1724 86.207Z" fill="#EFF2FA"/>
<path d="M38.7932 86.207C39.9835 86.207 40.9485 85.2421 40.9485 84.0518C40.9485 82.8614 39.9835 81.8965 38.7932 81.8965C37.6029 81.8965 36.6379 82.8614 36.6379 84.0518C36.6379 85.2421 37.6029 86.207 38.7932 86.207Z" fill="#EFF2FA"/>
<path d="M21.5518 86.207C22.7421 86.207 23.707 85.2421 23.707 84.0518C23.707 82.8614 22.7421 81.8965 21.5518 81.8965C20.3614 81.8965 19.3965 82.8614 19.3965 84.0518C19.3965 85.2421 20.3614 86.207 21.5518 86.207Z" fill="#EFF2FA"/>
<path d="M105.604 125H10.7759C9.58569 125 8.62061 124.035 8.62061 122.845V120.689C8.62061 119.499 9.58569 118.534 10.7759 118.534H105.604C106.794 118.534 107.759 119.499 107.759 120.689V122.845C107.759 124.035 106.794 125 105.604 125Z" fill="#959CB3"/>
<path d="M88.3621 125H28.0173C26.8271 125 25.8621 124.035 25.8621 122.845V118.534C25.8621 117.344 26.8271 116.379 28.0173 116.379H88.3621C89.5522 116.379 90.5173 117.344 90.5173 118.534V122.845C90.5173 124.035 89.5522 125 88.3621 125Z" fill="#AFB9D2"/>
</g>
<defs>
<clipPath id="clip0_110_1805">
<rect width="125" height="125" fill="white"/>
</clipPath>
</defs>
</svg>
