<svg width="50" height="50" viewBox="0 0 50 50" fill="none" xmlns="http://www.w3.org/2000/svg">
<g clip-path="url(#clip0_1_4433)">
<path d="M5 10H45C47.7613 10 50 7.76133 50 5C50 2.23867 47.7613 0 45 0H5C2.23867 0 0 2.23867 0 5C0 7.76133 2.23867 10 5 10Z" fill="#8D92C7"/>
<path d="M45 20H5C2.23867 20 0 22.2387 0 25C0 27.7613 2.23867 30 5 30H45C47.7613 30 50 27.7613 50 25C50 22.2387 47.7613 20 45 20Z" fill="#8D92C7"/>
<path d="M45 40H5C2.23867 40 0 42.2387 0 45C0 47.7613 2.23867 50 5 50H45C47.7613 50 50 47.7613 50 45C50 42.2387 47.7613 40 45 40Z" fill="#8D92C7"/>
</g>
<defs>
<clipPath id="clip0_1_4433">
<rect width="50" height="50" fill="white"/>
</clipPath>
</defs>
</svg>
