<svg width="125" height="125" viewBox="0 0 125 125" fill="none" xmlns="http://www.w3.org/2000/svg">
<path d="M30.1724 10.7759V114.224C30.1724 120.176 44.646 125 62.5 125C80.354 125 94.8276 120.176 94.8276 114.224V10.7759H30.1724Z" fill="#FFC36E"/>
<path d="M62.5 21.5518C80.3541 21.5518 94.8276 16.7272 94.8276 10.7759C94.8276 4.82453 80.3541 0 62.5 0C44.6459 0 30.1724 4.82453 30.1724 10.7759C30.1724 16.7272 44.6459 21.5518 62.5 21.5518Z" fill="#FFD782"/>
<path d="M62.5 18.3191C76.7832 18.3191 88.3621 14.9419 88.3621 10.7759C88.3621 6.60988 76.7832 3.23267 62.5 3.23267C48.2168 3.23267 36.6379 6.60988 36.6379 10.7759C36.6379 14.9419 48.2168 18.3191 62.5 18.3191Z" fill="#FFC36E"/>
<path d="M62.5 16.1638C73.8075 16.1638 82.9741 13.7516 82.9741 10.7759C82.9741 7.8002 73.8075 5.38794 62.5 5.38794C51.1925 5.38794 42.0259 7.8002 42.0259 10.7759C42.0259 13.7516 51.1925 16.1638 62.5 16.1638Z" fill="#FFE3A8"/>
<path d="M62.5 31.25C75.1108 31.25 88.2478 28.7629 94.8276 24.0706V17.2415C94.8276 21.2908 82.5303 26.9397 62.5 26.9397C42.4697 26.9397 30.1724 21.2908 30.1724 17.2415V24.0706C36.7522 28.7629 49.8892 31.25 62.5 31.25Z" fill="#E1B464"/>
<path d="M62.5 40.9482C75.1108 40.9482 88.2478 38.4612 94.8276 33.7688V26.9397C94.8276 30.989 82.5303 36.6379 62.5 36.6379C42.4697 36.6379 30.1724 30.989 30.1724 26.9397V33.7688C36.7522 38.4612 49.8892 40.9482 62.5 40.9482Z" fill="#E1B464"/>
<path d="M62.5 50.6465C75.1108 50.6465 88.2478 48.1594 94.8276 43.467V36.6379C94.8276 40.6873 82.5303 46.3362 62.5 46.3362C42.4697 46.3362 30.1724 40.6873 30.1724 36.6379V43.467C36.7522 48.1594 49.8892 50.6465 62.5 50.6465Z" fill="#E1B464"/>
<path d="M62.5 60.3447C75.1108 60.3447 88.2478 57.8577 94.8276 53.1653V46.3362C94.8276 50.3855 82.5303 56.0344 62.5 56.0344C42.4697 56.0344 30.1724 50.3855 30.1724 46.3362V53.1653C36.7522 57.8577 49.8892 60.3447 62.5 60.3447Z" fill="#E1B464"/>
<path d="M62.5 70.0432C75.1108 70.0432 88.2478 67.5561 94.8276 62.8638V56.0347C94.8276 60.084 82.5303 65.7329 62.5 65.7329C42.4697 65.7329 30.1724 60.084 30.1724 56.0347V62.8638C36.7522 67.5561 49.8892 70.0432 62.5 70.0432Z" fill="#E1B464"/>
<path d="M62.5 79.7415C75.1108 79.7415 88.2478 77.2544 94.8276 72.562V65.7329C94.8276 69.7822 82.5303 75.4312 62.5 75.4312C42.4697 75.4312 30.1724 69.7822 30.1724 65.7329V72.562C36.7522 77.2544 49.8892 79.7415 62.5 79.7415Z" fill="#E1B464"/>
<path d="M62.5 89.4397C75.1108 89.4397 88.2478 86.9526 94.8276 82.2603V75.4312C94.8276 79.4805 82.5303 85.1294 62.5 85.1294C42.4697 85.1294 30.1724 79.4805 30.1724 75.4312V82.2603C36.7522 86.9526 49.8892 89.4397 62.5 89.4397Z" fill="#E1B464"/>
<path d="M62.5 99.1379C75.1108 99.1379 88.2478 96.6509 94.8276 91.9585V85.1294C94.8276 89.1787 82.5303 94.8276 62.5 94.8276C42.4697 94.8276 30.1724 89.1787 30.1724 85.1294V91.9585C36.7522 96.6509 49.8892 99.1379 62.5 99.1379Z" fill="#E1B464"/>
<path d="M62.5 108.836C75.1108 108.836 88.2478 106.349 94.8276 101.657V94.8276C94.8276 98.877 82.5303 104.526 62.5 104.526C42.4697 104.526 30.1724 98.877 30.1724 94.8276V101.657C36.7522 106.349 49.8892 108.836 62.5 108.836Z" fill="#E1B464"/>
<path d="M62.5 118.534C75.1108 118.534 88.2478 116.047 94.8276 111.355V104.526C94.8276 108.575 82.5303 114.224 62.5 114.224C42.4697 114.224 30.1724 108.575 30.1724 104.526V111.355C36.7522 116.047 49.8892 118.534 62.5 118.534Z" fill="#E1B464"/>
<path d="M90.3071 14.1719C86.5874 13.3237 83.6589 10.3955 82.8108 6.67529C82.7468 6.39502 82.376 6.39502 82.3123 6.67529C81.4641 10.395 78.5359 13.3235 74.8159 14.1719C74.5356 14.2358 74.5356 14.6067 74.8159 14.6704C78.5356 15.5186 81.4641 18.4465 82.3123 22.1667C82.3762 22.447 82.7471 22.447 82.8108 22.1667C83.6589 18.4465 86.5872 15.5186 90.3071 14.6704C90.5874 14.6067 90.5874 14.2358 90.3071 14.1719Z" fill="white"/>
<path d="M75.2605 22.0459C72.9963 21.4595 71.2134 19.6765 70.627 17.4124C70.5679 17.1851 70.2737 17.1851 70.2148 17.4124C69.6284 19.6765 67.8455 21.4595 65.5813 22.0459C65.354 22.105 65.354 22.3992 65.5813 22.458C67.8455 23.0444 69.6284 24.8271 70.2148 27.0916C70.2739 27.3188 70.5681 27.3188 70.627 27.0916C71.2134 24.8269 72.9963 23.0444 75.2605 22.458C75.4878 22.3989 75.4878 22.1045 75.2605 22.0459Z" fill="white"/>
<path d="M62.5 12.9312C67.261 12.9312 71.1206 11.9662 71.1206 10.7759C71.1206 9.58555 67.261 8.62061 62.5 8.62061C57.739 8.62061 53.8794 9.58555 53.8794 10.7759C53.8794 11.9662 57.739 12.9312 62.5 12.9312Z" fill="#FFC36E"/>
</svg>
