<svg width="125" height="125" viewBox="0 0 125 125" fill="none" xmlns="http://www.w3.org/2000/svg">
<path d="M97.489 114.194L87.6819 115.363L81.7654 123.271C79.9116 125.75 76.1282 125.524 74.5811 122.844L45.522 72.5127L71.6521 57.4265L100.711 107.758C102.259 110.438 100.562 113.827 97.489 114.194Z" fill="#FF6464"/>
<path d="M84.449 109.764C83.4182 110.359 82.1001 110.006 81.5049 108.975L59.9531 71.6465C59.3579 70.6157 59.7112 69.2976 60.742 68.7026C61.7727 68.1074 63.0908 68.4607 63.6858 69.4915L85.2376 106.82C85.833 107.851 85.4798 109.169 84.449 109.764Z" fill="#D2555A"/>
<path d="M27.511 114.194L37.3181 115.363L43.2346 123.271C45.0884 125.75 48.8718 125.524 50.4189 122.844L79.4783 72.5127L53.3481 57.4265L24.2888 107.758C22.7415 110.438 24.4382 113.827 27.511 114.194Z" fill="#FF6464"/>
<path d="M37.9758 84.0518L35.1885 88.8799C35.5547 88.9683 35.9031 89.0813 36.1992 89.2681C37.7952 90.2729 38.3394 93.1992 40.0491 94.0239C41.7449 94.8423 44.3728 93.4487 46.1677 94.0769C47.9419 94.6978 49.1267 97.4282 50.9851 97.8508C52.8142 98.2668 55.0635 96.3203 56.9622 96.532C58.8218 96.7397 60.585 99.1379 62.5002 99.1379C64.415 99.1379 66.1777 96.7397 68.0371 96.5322C69.9353 96.3208 72.1838 98.2673 74.0127 97.8516C75.8704 97.4294 77.0547 94.699 78.8281 94.0786C80.6228 93.4504 83.2505 94.8445 84.9463 94.0264C86.656 93.2014 87.2 90.2756 88.7959 89.271C89.0935 89.0835 89.4443 88.9705 89.8125 88.8821L87.0242 84.0518H37.9758Z" fill="#D2555A"/>
<path d="M40.5508 109.764C41.5815 110.359 42.8997 110.006 43.4946 108.975L65.0464 71.6465C65.6416 70.6157 65.2883 69.2976 64.2576 68.7026C63.2268 68.1074 61.9087 68.4607 61.3137 69.4915L39.762 106.82C39.1668 107.851 39.52 109.169 40.5508 109.764Z" fill="#D2555A"/>
<path d="M109.914 47.4138C109.914 49.1694 107.716 50.7856 107.525 52.4902C107.332 54.2307 109.116 56.2925 108.734 57.9692C108.347 59.6726 105.844 60.7588 105.275 62.3853C104.699 64.0305 105.976 66.4395 105.226 67.9939C104.47 69.561 101.788 70.0598 100.866 71.5227C99.9402 72.9932 100.649 75.6267 99.5686 76.9792C98.4856 78.3352 95.7598 78.2266 94.5344 79.4521C93.3086 80.6777 93.4172 83.4033 92.061 84.4861C90.708 85.5662 88.0747 84.8569 86.6047 85.7827C85.1418 86.7039 84.6431 89.386 83.0759 90.1418C81.5212 90.8918 79.1125 89.614 77.4673 90.1897C75.8416 90.7588 74.7559 93.2615 73.053 93.6484C71.3765 94.0295 69.3154 92.2451 67.5754 92.4392C65.8708 92.6294 64.2551 94.8276 62.5 94.8276C60.7444 94.8276 59.1282 92.6294 57.4236 92.4392C55.6831 92.2454 53.6213 94.0295 51.9446 93.6482C50.2412 93.2607 49.155 90.7578 47.5286 90.1885C45.8833 89.6128 43.4744 90.8901 41.9199 90.1399C40.3528 89.3838 39.854 86.7014 38.3911 85.78C36.9207 84.854 34.2871 85.563 32.9346 84.4824C31.5786 83.3994 31.6873 80.6736 30.4617 79.4482C29.2361 78.2224 26.5105 78.3311 25.4277 76.9749C24.3477 75.6218 25.0569 72.9885 24.1311 71.5186C23.21 70.0557 20.5278 69.5569 19.772 67.9897C19.022 66.4351 20.2998 64.0264 19.7241 62.3811C19.1553 60.7554 16.6523 59.6697 16.2654 57.9668C15.8843 56.2903 17.6687 54.2292 17.4746 52.4893C17.2844 50.7847 15.0862 49.1689 15.0862 47.4138C15.0862 45.6582 17.2844 44.042 17.4746 42.3374C17.6685 40.5969 15.8843 38.5354 16.2656 36.8584C16.6531 35.155 19.156 34.0688 19.7251 32.4424C20.3008 30.7971 19.0234 28.3882 19.7737 26.8337C20.5298 25.2666 23.2122 24.7678 24.1335 23.3049C25.0596 21.8345 24.3506 19.2009 25.4312 17.8484C26.5142 16.4924 29.24 16.6011 30.4653 15.3755C31.6912 14.1499 31.5825 11.4243 32.9387 10.3416C34.2917 9.26147 36.9251 9.9707 38.395 9.04492C39.8579 8.12378 40.3567 5.44165 41.9238 4.68579C43.4785 3.93579 45.8872 5.21362 47.5325 4.63794C49.1582 4.06909 50.2439 1.56616 51.9468 1.1792C53.6233 0.798096 55.6843 2.58252 57.4243 2.38843C59.1292 2.19824 60.7449 0 62.5 0C64.2556 0 65.8718 2.19824 67.5764 2.38843C69.3169 2.58228 71.3784 0.798096 73.0554 1.17944C74.7588 1.56689 75.845 4.06982 77.4714 4.63892C79.1167 5.2146 81.5256 3.93726 83.0801 4.6875C84.6472 5.4436 85.146 8.12598 86.6089 9.04736C88.0793 9.97339 90.7129 9.2644 92.0654 10.345C93.4214 11.428 93.3127 14.1538 94.5383 15.3792C95.7639 16.605 98.4895 16.4963 99.5723 17.8525C100.652 19.2056 99.9431 21.8389 100.869 23.3088C101.79 24.7717 104.472 25.2705 105.228 26.8376C105.978 28.3923 104.7 30.801 105.276 32.4463C105.845 34.072 108.348 35.1577 108.735 36.8606C109.116 38.5371 107.331 40.5981 107.525 42.3381C107.716 44.0427 109.914 45.6587 109.914 47.4138Z" fill="#FFD782"/>
<path d="M62.5 88.3621C39.9211 88.3621 21.5518 69.9927 21.5518 47.4138C21.5518 24.835 39.9211 6.46558 62.5 6.46558C85.0789 6.46558 103.448 24.835 103.448 47.4138C103.448 69.9927 85.0789 88.3621 62.5 88.3621ZM62.5 10.7759C42.2976 10.7759 25.8621 27.2117 25.8621 47.4138C25.8621 67.616 42.2976 84.0518 62.5 84.0518C82.7024 84.0518 99.1379 67.616 99.1379 47.4138C99.1379 27.2117 82.7024 10.7759 62.5 10.7759Z" fill="#FFC36E"/>
<path d="M62.5 79.7415C80.3541 79.7415 94.8276 65.2679 94.8276 47.4138C94.8276 29.5598 80.3541 15.0862 62.5 15.0862C44.6459 15.0862 30.1724 29.5598 30.1724 47.4138C30.1724 65.2679 44.6459 79.7415 62.5 79.7415Z" fill="#FFE3A8"/>
<path d="M77.0134 55.8911C77.0134 50.3413 73.7488 46.9275 67.0315 45.4573L64.6797 44.998V33.0193C64.7468 33.0164 64.8125 33.0022 64.8801 33.0151C67.0098 33.4583 68.7349 34.7253 69.6147 36.4917C70.1121 37.4907 71.113 38.1111 72.2244 38.1111C73.3162 38.1111 74.2869 37.5337 74.8186 36.5696C75.3245 35.6572 75.3008 34.5957 74.7581 33.7332C72.8511 30.7026 69.2727 28.7478 64.6794 28.2251V26.1426C64.6794 24.7979 63.5891 23.7075 62.2444 23.7075H62.229C60.8838 23.7075 59.7937 24.7981 59.7937 26.1426V28.1755C59.7639 28.1826 59.7463 28.2126 59.7153 28.2161C52.2607 29.0266 47.9866 33.0071 47.9866 39.1362C47.9866 44.4482 51.3074 48.0286 57.5923 49.49L59.7937 50.0083V62.48C59.688 62.502 59.5793 62.5115 59.4731 62.4941C56.9761 62.0295 55.0605 60.7427 54.0854 58.8728C53.5623 57.8718 52.5635 57.2493 51.4736 57.2493H51.0996C50.0164 57.2493 49.0522 57.8179 48.5205 58.7734C48.0081 59.688 48.0276 60.7603 48.5703 61.636C50.5139 64.7817 54.4639 66.7556 59.6936 67.1943C59.7332 67.1975 59.7559 67.2346 59.7937 67.2437V68.6863C59.7937 70.031 60.884 71.1211 62.229 71.1211H62.2444C63.5891 71.1211 64.6794 70.0308 64.6794 68.6863V67.1621C72.6311 66.3272 77.0134 62.3274 77.0134 55.8911ZM59.6245 43.9182C59.551 43.9182 59.4775 43.9097 59.406 43.8879C56.1328 42.9951 54.3298 41.0623 54.3298 38.4441C54.3298 35.6487 56.4053 33.4478 59.4968 32.9678C59.5969 32.9517 59.6965 32.9646 59.7937 32.9844V43.8608C59.7351 43.8735 59.6848 43.9182 59.6245 43.9182ZM64.7981 62.6018C64.77 62.604 64.7397 62.6062 64.7117 62.6062C64.7002 62.6062 64.6914 62.5942 64.6799 62.5938V50.9744C64.7512 50.9714 64.8223 50.9583 64.8936 50.9724C68.8933 51.874 70.8369 53.7722 70.8369 56.7773C70.8367 60.0291 68.5793 62.2063 64.7981 62.6018Z" fill="#E1B464"/>
<path d="M90.3071 20.6375C86.5874 19.7893 83.6589 16.8611 82.8108 13.1409C82.7468 12.8606 82.376 12.8606 82.312 13.1409C81.4639 16.8606 78.5356 19.7891 74.8157 20.6375C74.5354 20.7014 74.5354 21.0723 74.8157 21.136C78.5354 21.9841 81.4639 24.9121 82.312 28.6323C82.376 28.9126 82.7468 28.9126 82.8108 28.6323C83.6589 24.9121 86.5872 21.9841 90.3071 21.136C90.5872 21.0723 90.5872 20.7012 90.3071 20.6375Z" fill="white"/>
<path d="M77.4158 31.4214C75.1516 30.835 73.3687 29.052 72.7822 26.7878C72.7231 26.5605 72.429 26.5605 72.3701 26.7878C71.7837 29.052 70.0007 30.835 67.7366 31.4214C67.5093 31.4805 67.5093 31.7747 67.7366 31.8335C70.001 32.4199 71.7837 34.2026 72.3701 36.467C72.4292 36.6943 72.7234 36.6943 72.7822 36.467C73.3687 34.2024 75.1516 32.4199 77.4158 31.8335C77.6431 31.7749 77.6431 31.4802 77.4158 31.4214Z" fill="white"/>
</svg>
