<?xml version="1.0" encoding="utf-8"?>

<svg version="1.1" id="Icons" xmlns="http://www.w3.org/2000/svg" xmlns:xlink="http://www.w3.org/1999/xlink" x="0px" y="0px"
	 viewBox="0 0 32 32" style="enable-background:new 0 0 32 32;" xml:space="preserve">
<style type="text/css">
	.st0{fill:none;stroke:#000000;stroke-width:2;stroke-linecap:round;stroke-linejoin:round;stroke-miterlimit:10;}
</style>
<path d="M26.6,5.4C26.6,5.4,26.6,5.4,26.6,5.4C26.6,5.4,26.6,5.4,26.6,5.4C23.9,2.7,20.1,1,16,1S8.1,2.7,5.4,5.4c0,0,0,0,0,0
	s0,0,0,0C2.7,8.1,1,11.9,1,16s1.7,7.9,4.4,10.6c0,0,0,0,0,0s0,0,0,0C8.1,29.3,11.9,31,16,31s7.9-1.7,10.6-4.4c0,0,0,0,0,0s0,0,0,0
	C29.3,23.9,31,20.1,31,16S29.3,8.1,26.6,5.4z M25.9,7.6c1.7,2,2.9,4.6,3.1,7.4h-2c-0.2-2.3-1.1-4.4-2.5-6L25.9,7.6z M15,3.1v2
	c-2.3,0.2-4.4,1.1-6,2.5L7.6,6.1C9.6,4.4,12.2,3.3,15,3.1z M6.1,24.4c-1.7-2-2.9-4.6-3.1-7.4h2c0.2,2.3,1.1,4.4,2.5,6L6.1,24.4z
	 M5.1,15h-2c0.2-2.8,1.3-5.4,3.1-7.4L7.6,9C6.2,10.6,5.3,12.7,5.1,15z M15,28.9c-2.8-0.2-5.4-1.3-7.4-3.1L9,24.4
	c1.7,1.4,3.8,2.3,6,2.5V28.9z M16,22c-0.3,0-0.6-0.1-0.8-0.4l-4-5c-0.3-0.4-0.3-0.9,0-1.2l4-5c0.4-0.5,1.2-0.5,1.6,0l4,5
	c0.3,0.4,0.3,0.9,0,1.2l-4,5C16.6,21.9,16.3,22,16,22z M17,28.9v-2c2.3-0.2,4.4-1.1,6-2.5l1.4,1.4C22.4,27.6,19.8,28.7,17,28.9z
	 M23,7.6c-1.7-1.4-3.8-2.3-6-2.5v-2c2.8,0.2,5.4,1.3,7.4,3.1L23,7.6z M25.9,24.4L24.4,23c1.4-1.7,2.3-3.8,2.5-6h2
	C28.7,19.8,27.6,22.4,25.9,24.4z"/>
</svg>
